<svg id="图层_1" data-name="图层 1" xmlns="http://www.w3.org/2000/svg" viewBox="0 0 476.84 118.69"><defs><style>.cls-1{fill:#fff;}</style></defs><path class="cls-1" d="M46.52,68.53V59.62A148.45,148.45,0,0,1,2.46,90.56q-1.87.94-2.34,0a2.65,2.65,0,0,1,.94-2.81Q34.81,55.88,49.34,18.84H24.49c-3.44.32-7,.47-10.78.47q-5.16.48-7.5.94-1.41.46-2.34-1.41A9.91,9.91,0,0,1,2,15.56c-.63-.31-.93-.62-.93-.94s.46-.47,1.4-.47a74.47,74.47,0,0,0,12.66,1.41H85.43q7-13.11,10.31-14.06,7.5,3.75,17.35,14.53a7.59,7.59,0,0,1,.93,3.28c-.31.63-.93.78-1.87.47L78.4,18.84H60.59Q70.89,24,73.24,24.47a5.41,5.41,0,0,1,1.88,3.75,3.36,3.36,0,0,1-3.28,1.87,5.89,5.89,0,0,0-5.16,2.81c-.63,1.26-1.41,2.66-2.34,4.22-.32.63-.63,1.26-.94,1.88a1.92,1.92,0,0,0,1.41.47,1.88,1.88,0,0,0,1.4.47,3,3,0,0,1,2.35,2.34c0,.94-.63,1.72-1.88,2.34a4,4,0,0,0-1.41,4.22V67.59q-.47,27.19.94,38,0,7.5-5.15,8.91a52.08,52.08,0,0,1-9.85,2.34q-8.43,2.34-6.09-8.91.47-6.09.94-15.93Q46.06,80.26,46.52,68.53Zm45,14.06q-6.09-15-22.5-30c-.93-.62-1.4-1.24-1.4-1.87.31-.63,1.09-.78,2.34-.47q24.38,6.09,37.5,20.15,5.63,9.85-1.87,16.88Q96.2,92,91.52,82.59Z"/><path class="cls-1" d="M138.87,95.25A6.93,6.93,0,0,0,137,98.53q-1.4,3.75-4.22,2.34Q129.49,97.6,122,86.34c-1.56-1.87-1.1-3.28,1.41-4.22q26.72-12.65,42.19-21.56H167V31h-22.5q-10.31.46-17.81.94c-1.25.63-2,.31-2.34-.94A5.86,5.86,0,0,1,122,27.75c-.63-.31-.78-.62-.47-.94l1.41-.47q2.82.48,11.25.94H167V24.94q-.47-6.57-.47-11.72c-.31-3.44-.63-5.94-.93-7.5-.94-2.82.3-4.22,3.75-4.22a46.55,46.55,0,0,0,8,.47,74.64,74.64,0,0,0,9.37.93A3,3,0,0,1,189,5.25a2.28,2.28,0,0,1-1.4,2.81,3.72,3.72,0,0,0-2.35,4.22v15h24.85q6.09-10.3,9.37-10.78,5.63,1.41,15.47,11.72a7.48,7.48,0,0,1,.94,3.28c-.31.63-.94.78-1.88.47q-12.2-.46-27.65-.94h-21.1v2.34q5.16,15.48,12.19,25.78a1.37,1.37,0,0,1,.47-.93,123.81,123.81,0,0,0,8.44-18.75c.31-1.88,1.56-2.5,3.75-1.88q8,3.77,17.81,8.44c1.56,2.81,1.09,4.38-1.41,4.69q-4.22,0-6.09,1.4A129.45,129.45,0,0,1,200.74,62.9c0,.63-.16.79-.47.47a57.17,57.17,0,0,0,33.29,22.5c2.18.94,3.28,1.88,3.28,2.82A3,3,0,0,1,234.49,91a59.34,59.34,0,0,0-13.59,10.78c-.94,1.25-2.34,1.56-4.22.94q-23.44-11.25-31.41-52V61q-.47,30.93.47,40.31,0,9.84-5.62,12.66-4.22,2.34-12.19,3.75-6.09.93-6.56-3.28-1.41-7.52-9.85-9.38-4.22-1.41-3.75-3.28c.31-.62,1.88-.94,4.69-.94a24.22,24.22,0,0,0,7.5.94q7.5.93,7-9.37V66.19A204.19,204.19,0,0,1,138.87,95.25Zm2.81-37a46.14,46.14,0,0,0-6.09-16.41q-1.41-2.34,2.34-2.81Q153.4,41.36,159,49.31q3.75,9.84-7,15.47Q144,68.07,141.68,58.22Zm54.84-35.63q-2.81-9.37-6.09-12.65c-.94-.63-1.25-1.1-.94-1.41a3.4,3.4,0,0,1,2.35-1.41q11.7,0,18.28,5.63,4.22,8-3.28,13.12Q199.33,29.64,196.52,22.59Z"/><path class="cls-1" d="M254.65,101.81V73.69a40.54,40.54,0,0,0-7.5.93h-4.22c-1.25.63-2,.32-2.34-.93a10.78,10.78,0,0,1-2.35-4.22c-.63-.94-.47-1.25.47-.94a100.06,100.06,0,0,0,13.6,1.41h14.53V24.47h-8.91a92,92,0,0,0-11.25,1.4c-.94.32-1.72-.15-2.34-1.4a3,3,0,0,1-1.41-1.41c-.31-.62-.63-1.24-.94-1.87l-.93-.94c0-.31.62-.47,1.87-.47a82.38,82.38,0,0,0,8.44.94h15.47V19.31a105.46,105.46,0,0,0-1.41-12.66V4.78Q264,.1,269.65,1a93.89,93.89,0,0,1,15.47,2.34c2.18.94,2.5,2.35.94,4.22-1.57,1.25-2.19,2.51-1.88,3.75v9.38H310.9V19.31q-.47-6.55-.94-14.53c-.63-1.56-.63-2.65,0-3.28A11.71,11.71,0,0,1,314.18,1c2.81.31,7,1.1,12.66,2.34h2.34c2.18,1.26,2.5,2.82.94,4.69a3.36,3.36,0,0,0-1.88,3.75v8.91h1.88l.94-.94q5.63-8.44,8-8.44,5.16.95,13.13,8.91c1.56,2.5,1.24,3.91-.94,4.22h-23V69.94h2.82q5.63-9.37,9.37-10.79Q346.06,60.56,355,69a4.26,4.26,0,0,1,.47,3.28,1.88,1.88,0,0,1-1.87.94H275.74a4.09,4.09,0,0,1-1.4,2.81c-.94.63-1.41,1.87-1.41,3.75V99.47a79.05,79.05,0,0,0,13.59-20.16q.94-3.75,4.69-2.34,6.57,3.75,12.19,7.5c1.87,2.5,1.41,4.22-1.41,5.15a34.86,34.86,0,0,0-3.75.94q-13.12,9.84-24.84,13.59h-.47v3.29h50.63c1.24-1.88,2.34-3.45,3.28-4.69q-3.29-.94-6.57-5.63-5.62-8.43-17.34-15.93-3.29-1.41-2.81-2.82c.31-.93,1.56-1.4,3.75-1.4q18.28,1.4,27.19,7.5,8.43,7.5,4.21,15a38,38,0,0,1,10.79,8c1.56,1.87,1.24,3.28-.94,4.21a244.24,244.24,0,0,0-27.19-.46H272.46a10.65,10.65,0,0,1-2.34,4.21q-2.36,3.28-4.69,2.35a17.41,17.41,0,0,0-2.34-.94q-7-2.81-9.38-4.69-3.28-1.87-.94-5.15A9.55,9.55,0,0,0,254.65,101.81Zm29.53-77.34v9.84H310.9V24.47Zm0,13.59V54H310.9V38.06Zm0,19.69V69.94H310.9V57.75Z"/><path class="cls-1" d="M366.21,67.12V55.4q0-8.43-.47-13.12a41.71,41.71,0,0,1-6.09,4.22c-.94.94-1.57,1.25-1.88.94s-.31-1.1,0-2.35Q370.43,20.73,373.71,1.5c0-1.25.94-1.72,2.81-1.41a69,69,0,0,1,18.75,4.69c2.5,1.87,2.66,3.6.47,5.16-3.12,1.56-5,3-5.62,4.21a5.45,5.45,0,0,0-.94,1.41l-.94,1.88h7q3.75-5.63,7-7.5,5.15,1.39,13.12,8.43c1.56,1.57,2.18,3,1.88,4.22-.32,1.57-1.57,2.19-3.75,1.88q-6.1.47-18.75,12.18h6.56q4.68-6.55,6.56-6.56a40.93,40.93,0,0,1,13.59,8c1.88,1.88,1.72,3.44-.46,4.69q-2.82,2.36-2.35,3.28V76.5a78.66,78.66,0,0,0,4.22-26.72,1.92,1.92,0,0,0-1.41.47h-.46c-1.26.94-2,1.1-2.35.47s0-1.56.94-2.82Q430.9,37.13,430.9,13.69h-6.56a59.58,59.58,0,0,0-8,.46c-.94.32-1.41.17-1.41-.46-.63-1.25-1.25-2.5-1.87-3.75-.63-.31-.32-.63.93-.94q3.28.95,11.72.94h29.07q3.74-5.16,6.56-6.57a38.44,38.44,0,0,1,14.53,8.91c.94,1.57.47,2.81-1.41,3.75a4.39,4.39,0,0,0-3.28,3.28l-1.87,14.06q-1.41,8.91-5.63,10.32a26.85,26.85,0,0,1-9.37,2.81,1.86,1.86,0,0,0,1.87.94,4.23,4.23,0,0,1,2.35,2.81c0,.94-.63,1.87-1.88,2.81a5.07,5.07,0,0,0-1.41,3.75v8c2.82-5,5-7.65,6.57-8q2.81,0,11.25,8c1.56,2.19,1.24,3.6-.94,4.22H455.27V83.06q5.63-9.84,8-10.31a47.39,47.39,0,0,1,13.13,10.31c.94,2.51.47,3.91-1.41,4.22q-3.29-.47-19.69-.47v3.28a61.86,61.86,0,0,0,0,10.78q.47,5.16.47,9.38c0,4.06-1.4,6.4-4.22,7a37.46,37.46,0,0,1-10.78,1.41c-2.5,0-3.44-1.57-2.81-4.69q.93-14.07.94-27.19H426.68a38,38,0,0,0-7.5.47,67.1,67.1,0,0,0,0,11.25c.31,3.13.47,5.46.47,7q.93,9.84-12.66,12.66-6.09.45-6.56-3.28-.94-5.62-4.69-8h-.47l-4.21,1.4a1.92,1.92,0,0,0-1.41.47q-7,1.41-5.63-7.5.47-9.37.94-20.15h-3.28q-.46,23-21.09,35.62c-1.25.62-2.19.78-2.82.47-.31-.32-.16-1.1.47-2.34Q366.21,102.75,366.21,67.12Zm19.69-46.4a110.87,110.87,0,0,1-9.84,12.18,35.82,35.82,0,0,1,6.09,2.35,6.76,6.76,0,0,0,1.87,1.4h5.63l6.09-15.93Zm-4.22,23V57.28h3.75V40.4h-2.34A4.51,4.51,0,0,0,381.68,43.69Zm3.75,21.56V61h-3.75V77.44H385a19.39,19.39,0,0,1,0-6.1A51.69,51.69,0,0,0,385.43,65.25ZM403.24,40.4h-3.75V57.28h3.75ZM399.49,61V77.44h3.75V61Zm0,42.66c2.19-.32,3.44-1.41,3.75-3.29V81.19h-3.75v22.5Zm19.22-24.85v3.75c2.18.63,5.63.79,10.31.47h9.85V69H429a43.8,43.8,0,0,1-9.37,9.37.42.42,0,0,0-.47.47C418.87,79.16,418.71,79.16,418.71,78.84Zm29.06-34.69a10.07,10.07,0,0,0-6.09-8q-5.16,7.5-15.47,11.71,7.5,1.89,12.19,3.29V48.37c-.31-1.87-.16-3.12.47-3.75s2-.77,4.22-.47l4.68.94Zm-16.4,21.57h7.5V55.87a8.25,8.25,0,0,0-3.28,2.82l-.47.46C433.55,61.66,432.31,63.84,431.37,65.72Zm24.37-52h-7a6.35,6.35,0,0,0-1.87,4.68,96.09,96.09,0,0,1-3.28,14.07q10.31,2.81,10.31-5.63Z"/></svg>