<svg id="图层_1" data-name="图层 1" xmlns="http://www.w3.org/2000/svg" viewBox="0 0 733.47 517.11"><defs><style>.cls-1{fill:#fff;}</style></defs><path class="cls-1" d="M343.41,429.8c-.49,19.28-1.09,38.56-1.39,57.84-.06,3.48-1.25,4.13-4.35,4-6.81-.25-13.65-.36-20.46-.14-3.06.1-3.52-1.08-3.54-3.7-.15-17.79-.42-35.57-.68-53.36a77.78,77.78,0,0,0-2.43-17.77C306.87,402,297,393.91,282.5,391c-8.76-1.74-17.59-1.33-26.34.08-16.72,2.69-25.85,13.23-29.24,29.27-3.22,15.22-3.37,30.72-3.95,46.18-.26,7.15-.44,14.3-.5,21.46,0,2.52-.82,3.54-3.49,3.51q-11.47-.16-23,.13c-2.65.07-3-1.05-2.85-3.28q2.93-60.81,3.12-121.71c0-3.85,1.17-5,5.15-4.83q62.34,2.55,124.69,4.71c5,.18,10,.23,15,.12,2.8-.05,3.68.93,3.66,3.78-.12,19.78-.06,39.57-.06,59.35Z"/><path class="cls-1" d="M400.35,283.29c7.6,12.46,15.06,24.6,22.43,36.79,4.82,8,9.41,16.07,14.3,24,1.9,3.07,2.11,5.76,1,9.29-2.09,6.85-4.42,13.08-9.64,18.59-6.37,6.74-8.53,15.71-7.25,25.08.37,2.72.09,3.67-2.83,3.36a28.62,28.62,0,0,0-6.47.19c-13.14,1.64-17.37,7-15.78,20,.17,1.32.29,2.66.59,3.95.87,3.7,0,5.9-3.62,8.29-10.64,7.1-8.2,24.27,4.11,29.22,3.65,1.47,4.91,3.26,4.62,6.82-.09,1.16.11,2.33.06,3.49-.32,8.07,3.05,13.33,11.22,15.16,1.47.33,3.75.55,3.21,2.91-.41,1.8-2.25,1.55-3.78,1.54-18.81-.12-37.63-.31-56.44-.24-3.48,0-3.61-1.51-3.54-4.23q1.23-49.63,2.28-99.27a75,75,0,0,0,0-9.48c-1.33-12.26,2.06-22.9,8.65-33.38,12.21-19.41,23.37-39.47,35-59.26C399,285.23,399.58,284.45,400.35,283.29Z"/><path class="cls-1" d="M469.71,516.2c-47.79.28-95.57.92-143.38,0-29.12-.57-58.26-2.14-87.4-1.19-28.46.94-56.92,1.38-85.36.49-37.45-1.17-74.92-1-112.37-1.84-2.36,0-4.72,0-6.58-1.7a5.8,5.8,0,0,1-1.55-6.43c1-2.91,3.39-3.95,6.3-3.95,10,0,20,.27,30-.07,55.8-1.93,111.59,1.06,167.39.06,33.47-.6,66.94.49,100.42.7,36.47.23,73,.47,109.42.43,4.68,0,8.27,2.08,12.16,3.78,4.5,2,9.13,4,13.93,2,16.69-7,34.23-5.82,51.66-5.77,26.48.07,52.95.05,79.43.39,33,.42,65.92,1.17,98.87,1.75a14.64,14.64,0,0,1,5.37,1,5,5,0,0,1,3.26,5.12,5.1,5.1,0,0,1-3,4.79,14.37,14.37,0,0,1-6.34,1.07c-43.46.91-86.9-.44-130.35-.78-27.28-.22-54.57.11-81.86.18C483,516.22,476.37,516.2,469.71,516.2Z"/><path class="cls-1" d="M306.93,51.87c-5.56,12.94-10.64,24.68-15.66,36.44-2.15,5-5.25,9.1-11.17,9.32s-9.51-3.19-12.13-8.12c-5-9.44-8-19.67-11.6-29.66C251.73,47,247.16,34.2,243.75,21c-1.83-7.12,0-11.7,5.07-13.24,5.41-1.65,10.34.91,12.73,7.56,5.29,14.69,10.16,29.52,15.24,44.28.79,2.3.92,6,3.21,6.23,2.7.22,2.69-3.65,3.6-5.75,4.89-11.28,9.48-22.68,14.26-34a24.74,24.74,0,0,1,3.07-5.66c4.19-5.34,10.8-5.08,14.55.62,3.14,4.76,4.67,10.25,6.52,15.58,3,8.79,6,17.61,9.05,26.4.37,1,.48,2.58,1.77,2.79,1.82.3,1.88-1.56,2.37-2.65,6.6-14.69,13.13-29.42,19.71-44.13,1.36-3,2.68-6.15,6.17-7.45,3.85-1.43,7.31-.38,10.22,2.13,3.15,2.73,3.33,6.39,2,10.1-4,11.3-8.87,22.22-13.86,33.09-5.26,11.48-9.84,23.29-16.27,34.2-3.83,6.51-9.88,8.21-16.17,5.06-3-1.5-4.73-4.12-6.14-7-4.4-9-7.46-18.48-10.67-27.92C309.27,58.45,308.28,55.69,306.93,51.87Z"/><path class="cls-1" d="M187.72,1.85c3.33,0,5.49-.07,7.66,0,6.73.28,9.83,3.06,10.29,9.1.43,5.6-2.63,10.1-8.58,11.07-6.38,1-12.9,1.2-19.36,1.73-5.15.42-10.29.84-15.44,1.22-3.13.23-5.24,1.22-5.51,5a67.42,67.42,0,0,1-1.89,10.29c-.77,3.33.37,4,3.55,3.38a57.39,57.39,0,0,1,27.65.9c11.67,3.41,20.25,10.11,22.77,22.6,2.64,13.15-.82,24.32-11.5,33-15.85,12.84-43.48,14.28-60.08,3-2.8-1.9-5.26-4.08-6.38-7.42-1.33-4-.79-7.72,2.37-10.52s6.7-2.79,10.19-.64a37.38,37.38,0,0,0,17.85,5.76c6.65.37,13-.73,18.53-4.61,4.32-3,7-7.11,6.15-12.73-.85-5.35-4.41-8.44-9.26-10.1-8.36-2.88-16.66-2.29-24.92.63-3.87,1.37-7.66,3.13-12.06,1.63-5.36-1.81-8.36-5.22-7.54-10.76,1.92-13,3.8-26,6.9-38.78,1.64-6.76,6.51-9.67,13-10.61C164.29,3.17,176.59,2.64,187.72,1.85Z"/><path class="cls-1" d="M561.8,66.61c3.32-7.35,6.15-13.67,9-20a28.39,28.39,0,0,1,2.3-4.41c5-7.33,13.22-6.82,16.81,1.25,2.36,5.3,4,10.94,5.95,16.4.72,2,1,4.18,2.84,6.17,3.7-6,5.35-12.59,8.06-18.74,1.47-3.34,2.66-6.82,4.23-10.11a9.73,9.73,0,0,1,12.15-5.07c4.1,1.49,6,5.35,4.35,10.82a395.88,395.88,0,0,1-16.71,46.44c-2,4.57-5.4,7.39-10.76,7.57s-8.54-2.79-10.59-7c-3.22-6.52-5.91-13.3-9.08-20.57-2.65,6.18-5,11.82-7.49,17.39a28,28,0,0,1-3.17,5.63c-4.53,5.85-13.33,5.67-16.73-.82a233.09,233.09,0,0,1-18-45.89c-1.54-5.54.57-9.62,4.39-10.89,5.15-1.72,9.38.34,12,6.06C555,48.92,557.13,57.55,561.8,66.61Z"/><path class="cls-1" d="M276.21,353.84c14.76-19.06,29.63-38,44.25-57.19,8.46-11.11,16.6-22.47,24.72-33.84,1.64-2.3,3.37-3.24,6.15-3,6.14.47,12.28.89,18.43,1,3.9.07,3.09,1.36,1.62,3.72q-17,27.28-33.9,54.69Q327.18,336,317.24,353c-1,1.74-1.9,2.8-4.13,2.78-12.23-.1-24.46,0-36.69,0Z"/><path class="cls-1" d="M238.44,353.82c7.31-8.73,13.71-16.3,20.05-23.93,18.81-22.67,37.66-45.32,56.32-68.11,2-2.47,3.78-3.61,7-3.32,4.11.36,8.27.09,13.72.09-5.52,7.61-10.16,14.35-15.14,20.83-18.06,23.49-36.28,46.86-54.3,70.38-2.39,3.11-4.9,4.38-8.81,4.15C251.49,353.57,245.66,353.82,238.44,353.82Z"/><path class="cls-1" d="M410.17,47.34c.6-12.45,1.15-24.91,1.83-37.36.4-7.19,2.9-10,8.48-10s9,3.27,9,10.24c-.17,18.12-.72,36.24-1.34,54.35-.25,7.29.32,14.63-1.06,21.88-1.19,6.27-3.85,8.7-9.6,8.45-5.18-.23-8.06-3.13-8.37-9.19-.49-9.48.25-18.94.69-28.41.15-3.32,0-6.65,0-10Z"/><path class="cls-1" d="M458.5,47.3c-.79,13-.39,26-1.58,38.88-.68,7.41-5.33,10.57-12.39,8.76-5.09-1.3-5.59-5.39-5.59-9.37,0-10.14.28-20.28.59-30.41C440,40,440.46,24.91,441.2,9.8c.38-7.8,4.61-11,11.2-9.31,4.42,1.15,6.27,4.17,6.28,8.42,0,8-.13,16-.18,23.93C458.47,37.66,458.5,42.48,458.5,47.3Z"/><path class="cls-1" d="M327.31,355.89c8.73-14.3,17-27.87,25.27-41.39,9.82-16,19.83-31.85,29.46-47.95,2.16-3.62,4.3-5.46,8.6-4.62,2.72.53,5.57.44,9.11.67-4.67,8.16-9,15.75-13.36,23.29-13.1,22.54-26.27,45-39.31,67.61a4.23,4.23,0,0,1-4.33,2.43C337.94,355.82,333.13,355.89,327.31,355.89Z"/><path class="cls-1" d="M304.44,257.76c-6.23,7.75-11.73,14.78-17.41,21.64q-29.1,35.18-58.28,70.26a5.25,5.25,0,0,1-4.6,2.32c-4-.15-7.94-.05-12.84-.05,5.7-7.13,10.85-13.72,16.13-20.19q23-28.2,46.1-56.31c4.54-5.52,9.29-10.86,13.87-16.34a5.26,5.26,0,0,1,4.82-1.94C295.88,257.4,299.53,257.52,304.44,257.76Z"/><path class="cls-1" d="M275.68,256.94c-12,14.41-23.75,28.2-35.17,42.23q-19.22,23.59-37.9,47.62c-2.88,3.72-5.69,5.61-10.36,4.67-2.55-.51-5.19-.54-8.64-.87,7.32-8.59,14.14-16.65,21-24.65,18.57-21.52,37.43-42.8,55.59-64.66C264.76,255.85,269.38,256,275.68,256.94Z"/><path class="cls-1" d="M556.39,486.88a49.85,49.85,0,0,0,.55-6.67,9.42,9.42,0,0,1,3.33-8.16c4.63-4.35,4.66-10.38,3.9-16.31-1.11-8.55-3.17-17-1.36-25.74,3.64-17.52,19-27,34.93-21.32,3.71,1.31,6.9,3.38,8.86,6.87,1.16,2.06,2.13,4.52,0,6.42-1.94,1.71-4.39,2.33-6.88.73-.7-.45-1.4-.89-2.12-1.32-10.78-6.41-21.81-1.14-23.76,11.33-1.36,8.7.9,17.18,1.49,25.75C576.27,472.42,569.39,483.17,556.39,486.88Z"/><path class="cls-1" d="M397.94,59.71c-.27,9.09,0,16.76-1.16,24.35-1,6.64-3.9,9.23-9.73,8.89-5.19-.31-8.1-3.69-8.1-10,0-13.48,1.14-26.91,2.22-40.33.26-3.2.62-6.75,4.09-8.63a8.42,8.42,0,0,1,12.6,7.17C398.23,47.83,397.94,54.5,397.94,59.71Z"/><path class="cls-1" d="M551.89,147.23c3-5.53,5.61-10.35,8.32-15.09,1.75-3.07,4-5.67,8-3.56s3.1,5.25,1.47,8.54c-6.27,12.64-12.43,25.33-18.71,37.95a31.72,31.72,0,0,1-3.75,5.84,5,5,0,0,1-6.74,1.15c-2.52-1.43-3-3.84-1.85-6.45,1.85-4.08,3.62-8.22,5.79-12.12,1.5-2.69,1.14-4.7-.34-7.3-3.44-6.05-6.46-12.34-9.61-18.56-1.47-2.91-2-5.84,1.39-7.78,3.66-2.11,5.95,0,7.71,3C546.23,137.4,548.85,142,551.89,147.23Z"/><path class="cls-1" d="M187.44,116c4.33,0,8.65-.1,13,0,2.77.08,5.52.7,5.75,4.2s-1.67,5.57-5.22,6c-.66.08-1.31.25-2,.34-7.51,1-7.37.94-6.73,8.82.58,7.13.91,14.28,1.11,21.43.09,3.49-.63,7-5.24,6.92-4.27-.05-4.89-3.38-5.07-6.67-.47-8.81-.92-17.62-1.18-26.43-.08-2.8-1-3.9-3.83-3.62a48,48,0,0,1-7-.06c-2.94-.14-4.79-1.91-4.85-4.69-.06-2.56,1.73-4.2,4.32-4.74C176.11,116.38,181.81,117,187.44,116Z"/><path class="cls-1" d="M347,141.15c1-7.14.75-14.29,1.73-21.4.45-3.28,1.53-6,5.46-5.66s4.15,3.31,4.12,6.26c-.09,9.63-.12,19.27-.47,28.89-.13,3.76.64,5.49,4.86,4.8a71.12,71.12,0,0,1,10.44-.54c2.79,0,5.41.43,5.83,4s-1.31,5.76-4.74,6.4A83.61,83.61,0,0,1,352.35,165c-3.93-.32-5.42-2.69-5.41-6.39C347,152.76,347,147,347,141.15Z"/><path class="cls-1" d="M313.15,163.83a15.28,15.28,0,0,1-8.74-2c-2.32-1.4-3.76-3.21-2.75-6.19,1.06-3.13,3.37-3.26,6-2.8,2,.33,3.92.63,5.89.88a2.43,2.43,0,0,0,2.86-1.47c.49-1.53-1-1.92-1.95-2.42a33.53,33.53,0,0,0-3.25-1.25c-8.47-3.21-11.68-9.62-8.35-16.68,3.18-6.73,13.14-9.58,19.85-5.66a8,8,0,0,1,3.24,3.66,4.38,4.38,0,0,1-.86,5.06,3.71,3.71,0,0,1-4.45,1.15c-2.61-.86-6.57-2.75-7.61.28-1.14,3.3,3.56,3.36,5.79,4.57,6.82,3.69,9.71,8.15,8.41,13.67C325.91,160.45,320.88,163.81,313.15,163.83Z"/><path class="cls-1" d="M204.92,144.89c0-4.16,0-8.32,0-12.48,0-2.55,1-4.52,3.62-5.31,2.37-.72,4.42-.22,5.45,2.12,1.16,2.63,2.37.78,3.41.15,4-2.4,8-2,11.77.36,2.38,1.51,3.91,3.8,2.66,6.8s-3.69,3.85-6.56,2.81c-4.77-1.72-6.81,1-8.23,4.75-1.13,3-1.14,6.19-1.22,9.35a24,24,0,0,1-.45,5.44c-.72,2.73-2.29,5-5.53,4.75s-4.94-2.51-5-5.75c-.07-4.33,0-8.66,0-13Z"/><path class="cls-1" d="M504,144.35c0-4-.05-8,0-12,0-2.39.39-4.85,3.15-5.57,2.33-.61,4.73-.57,5.93,2.16.85,2,1.68.92,2.93.33a12.9,12.9,0,0,1,12.39.34,4.83,4.83,0,0,1,2.43,6.34c-.92,2.62-2.87,3.75-5.88,3.23-5.92-1-7.53.18-9.25,6-1.06,3.57-.72,7.25-1,10.88-.27,3.79-1.39,7.18-6,6.94-4.4-.23-5-3.6-5-7.2,0-3.82,0-7.64,0-11.46Z"/><path class="cls-1" d="M437.56,144.5c0-4.16,0-8.32,0-12.49,0-2.3.44-4.5,2.84-5.3s4.8-.29,6,2.17c.89,1.84,1.61,1.19,2.85.54,4.32-2.24,8.68-2.24,12.75.56,2.15,1.47,3.72,3.5,2.54,6.37s-3.47,4-6.47,2.92c-4.71-1.67-6.72,1.06-8.24,4.79-1.62,4-.91,8.23-1.41,12.34-.43,3.61-1.3,6.73-5.75,6.65-4.7-.09-5-3.58-5.06-7.06C437.51,152.16,437.56,148.33,437.56,144.5Z"/><path class="cls-1" d="M528.7,420.31c-16.85,2.2-32.86,7.49-48.65,13.56-6.8,2.62-13.2,2.48-19.5-1.57a184.26,184.26,0,0,0-45.45-21.21c-.4-.12-.7-.55-1.62-1.29,13.69-.42,25.38,4,36.73,9.62a56.45,56.45,0,0,1,14.84,10c4.21,4.16,8.57,4.41,13.66,2.44,11.76-4.54,23.47-9.2,36-11.32A46.11,46.11,0,0,1,528.7,420.31Z"/><path class="cls-1" d="M392.7,146.05c0,3.64.17,7.3-.06,10.93-.2,3.16-1.32,5.9-5.25,5.93-3.77,0-4.8-2.49-4.89-5.56a128.7,128.7,0,0,1,1.23-22.79c.42-2.8,1.94-4.61,4.94-4.51,3.2.1,4.16,2.28,4.2,5.06,0,3.64,0,7.29,0,10.94Z"/><path class="cls-1" d="M391,22.79c-6,.1-10-3.37-10-8.62,0-5.53,3.76-9.26,9.42-9.36,6-.1,10.05,3.31,10.15,8.56C400.62,18.42,396.28,22.69,391,22.79Z"/><path class="cls-1" d="M537.59,463.1c-5.86-.06-9.55-2.63-10.17-6.52-.67-4.23,2.08-7.82,7.17-9.25a23.49,23.49,0,0,1,3.89-.77c5.43-.6,8.59,1.11,9.41,5,1.1,5.18-1.18,9.27-6.23,10.86A22.48,22.48,0,0,1,537.59,463.1Z"/><path class="cls-1" d="M403.38,438.59c6,.07,10.64,4,10.56,8.88-.07,4.32-3.87,7.45-8.87,7.31-5.3-.14-9.34-4-9.26-9C395.88,441.36,398.84,438.54,403.38,438.59Z"/><path class="cls-1" d="M532.89,492.52c3.14-5,3-10.45,3.82-15.67.44-2.67,6.39-7,8.9-6.22a1.92,1.92,0,0,1,1,.88C551.09,479.78,543.34,492.23,532.89,492.52Z"/><path class="cls-1" d="M388.65,124.38c-3.18-.13-5.5-1.49-5.63-4.9-.13-3.66,2.32-5.46,5.61-5.52s5.25,1.75,5.28,5.2S392,124.17,388.65,124.38Z"/><path class="cls-1" d="M112.31,322.25q.73-14.44,1.47-28.88c.07-1.33.17-2.67.15-4-.06-3.21-1.27-5.57-4.88-5.67-3.42-.1-4.75,2.26-5,5.11-.62,8.13-1.26,16.27-1.44,24.42-1.25,57.43-2,114.86-.49,172.3.1,3.85-.36,6.07-4.92,5.29-3.88-.66-9.14,1.87-11.37-.92-1.82-2.26-.21-7.28-.1-11.08,1.59-55.41,4.47-110.79,4.32-166.26,0-15.46,1.14-30.93,1.73-46.4a33.15,33.15,0,0,0-.1-6c-.4-2.75-2-4.63-5-4.56s-4.46,1.94-4.63,4.81c-.32,5.31-.56,10.63-.83,15.95-1.38,26.95-1.5,53.92-1.45,80.9,0,1.62,0,3.24,0,5.07-2.58.1-3.13-1.7-4-2.89a179.86,179.86,0,0,0-14.59-17.08,18.81,18.81,0,0,0-5.54-4.2,4.36,4.36,0,0,0-5.09.83A4.6,4.6,0,0,0,49,344a8,8,0,0,0,2,3.39c10.47,9.47,18.34,21,26.47,32.41.9,1.27,1.65,2.28,1.59,3.94-1.35,34.43-2.77,68.85-3.83,103.28-.17,5.61-3.62,3.68-6.36,4-4.17.55-3-2.45-2.92-4.52,1-26.61,1.9-53.22,3.07-79.82.2-4.52-.87-6.56-5.72-7.14a100.66,100.66,0,0,1-35.15-10.49C5.64,377.3-1.57,356.68.27,334a59.49,59.49,0,0,1,14-34.56c2.33-2.73,1.89-5.4.92-8.37-5.66-17.23-3.66-33.75,4.64-49.71a38.68,38.68,0,0,1,16.79-16.58c3.62-1.91,4.84-4.36,5.4-8.09,3.69-24.58,16.79-42.27,40.18-50.93,23-8.49,53.87-3.43,66.28,25.05a60.89,60.89,0,0,1,5,23.27c.05,2.33.08,4.49,2.81,5.78,17.21,8.17,23.59,23,24.51,40.89a75,75,0,0,1-5,30.33c-1.21,3.23-1.32,5.87,1.19,8.68,2.68,3,3.75,7,4.9,10.81.55,1.82.57,4.22,3.08,4.66,2.2.38,3.1-1.55,4.27-2.91q32.33-37.41,64.59-74.86a8.82,8.82,0,0,1,7.41-3.15c20.16,0,40.26,1.31,60.37,2.36,30.25,1.59,60.48,3.38,90.72,5.07,4.82.27,8.14,2.33,10.92,6.57,18.33,28,37,55.75,55.41,83.64,1.42,2.16,4,4.32,1.23,7.47-4.38,5-6.23,5-9.89-.5q-25.29-37.72-50.54-75.46c-1.57-2.35-3.32-4.58-4.93-6.91-2-2.84-4.61-3.84-8.06-4-37.24-1.78-74.46-3.73-111.7-5.54-10.13-.49-20.28-.6-30.43-1a7.69,7.69,0,0,0-6.58,2.79q-42.13,48.75-84.31,97.45c-.87,1-1.72,2-2.51,3.11-3.75,5.13-2,9.68,4.25,11.06a28.89,28.89,0,0,0,3.47.45c8,.75,7.81.74,7.63,9.16-.39,17.81-.28,35.64-.8,53.44-.62,21.29-1.87,42.57-2.46,63.86-.17,6.13-4.25,3.49-7,4-4.1.79-3.12-2.21-3.05-4.38,1.11-35.62,3.14-71.2,3.42-106.84,0-2.6,2.06-6.57-2.34-7.58-4.71-1.08-9.87-3-14.05,1.29a125.08,125.08,0,0,1-24.16,20c-1.56,1-3,2.33-4.7,2.8-9.39,2.57-10.8,8.95-10.43,17.79,1,23.61.82,47.27,1.54,70.9.17,5.39-2.82,4.67-6.09,5.09-4.26.54-3.49-2.26-3.59-4.68-1.27-29.77-1-59.56-1-89.34,0-2.7.67-4,3.25-5.24,10.27-4.81,20.13-10.36,28.09-18.7.69-.72,1.42-1.41,2-2.19,2.15-2.7,3.34-5.81.46-8.42s-6-1.3-8.23,1.45c-5.5,6.74-12.64,11.26-20.23,15.16-5.27,2.7-5.27,2.61-5.23-3.22.05-8.16.19-16.33,0-24.48a17.44,17.44,0,0,1,3-10.25c8.52-13.51,17-27.05,22.8-42,.54-1.39,1-2.83,1.46-4.24,1-2.86.71-5.44-2.37-6.65s-5.52.18-6.88,3.17c-1.92,4.24-3.52,8.63-5.66,12.76-3.34,6.41-7,12.66-10.55,19Zm-2.4-147.42c-22.61-3.77-46.21,11.11-52.75,33.28-1,3.3-1.79,7,2.49,8.42s5.93-1.83,7-5.26c2.72-8.79,8.27-15.5,15.63-20.71,16.18-11.48,36.54-6.94,45.17,9.93a32.1,32.1,0,0,1,2.71,9c.56,3,2.58,4.69,5.71,4.32s3.81-2.78,3.87-5.48C138.26,193.1,128.27,177.89,109.91,174.83ZM27.46,374c3.08,2.23,6.93,6,10.42,1.82,4-4.74-1-7.42-4.16-9.81-8.37-6.39-11.82-15-11.77-25.18,0-8.38,1.08-16.56,6.11-23.73,1.39-2,1.94-4.46-.27-6.29a4.87,4.87,0,0,0-7.16.39A20,20,0,0,0,17.16,316a51.67,51.67,0,0,0-5.34,21.49C11.79,354.88,17,366.47,27.46,374ZM166,248.1c-2.58-6.91-6.6-12.72-13.58-15.79-2.94-1.29-6-1.19-7.78,2.12-1.64,3,0,5.13,2.61,6.51,7.54,4,10.35,10.83,11.37,18.76,1.16,9-1,17.48-4.35,25.73-1.32,3.21-2.57,6.78,1.44,8.68,4.41,2.1,6.17-1.59,7.81-4.74,4-7.57,4.78-15.83,5.38-23.63C168.71,259.37,168,253.61,166,248.1ZM25.68,285.41c1.24,3.59,3.77,5.34,7.24,4.37s3.26-4.17,2.6-7.07c-3.64-15.93-2.23-30.12,13.32-39.62a4.79,4.79,0,0,0,1.81-6.58c-1.2-2.46-3.7-2.56-6.1-1.89-5.94,1.66-10.12,5.64-13.3,10.68a46.24,46.24,0,0,0-7.66,25.92A41.79,41.79,0,0,0,25.68,285.41Z"/><path class="cls-1" d="M653.15,336.78c0-9.26,0-18.51,0-27.77.07-16.66-1.14-33.26-2.32-49.86-.22-3.18-.94-6.36-4.93-6.17s-5.16,3.41-5,6.8c.84,14,2,27.89,2.11,41.88,0,7.57,0,15.15,0,23.35-9.92-6.94-18.11-14.77-24.44-24.49-.64-1-1.18-2-1.83-3-1.92-2.84-4.63-4.29-7.68-2.45-3.22,1.94-2.66,5.1-1,7.92a96.32,96.32,0,0,0,18.62,22.68,148.39,148.39,0,0,0,13.56,11c2.76,1.93,3.41,4.1,3.44,7.13q.59,55.69,1.33,111.39c.15,11,.25,22,.88,32.94.24,4.27-1.24,5-4.92,4.74a102.93,102.93,0,0,0-14.48-.06c-3.77.3-4.09-1.11-3.58-4.23,2.53-15.43,5.06-30.86,7.31-46.32a482.74,482.74,0,0,0,4.35-56.72c.23-8.82-.08-8.82-8.35-11.32-9.61-2.92-18.83-6.62-26.57-13.28-6.31-5.42-9.94-12-8.94-20.57.34-2.87.07-5.51-3.61-5.89s-5.6,1.88-6.1,5.18A28.59,28.59,0,0,0,587.44,363c8.53,10.43,20.25,15.91,32.45,20.61,1.59.61,4.26.26,4.42,2.5a67.78,67.78,0,0,1-.4,10.93c-.09,1-1.37.69-2.11.42-16.88-6-33.57-12.21-44.33-27.93-9.07-13.24-11.66-27.37-5.75-42.54,1.16-3,.56-4.86-1.25-7.15-17-21.36-12.55-55.64,9.42-71.69,3.43-2.5,4.31-5,4.41-9.06.49-19.46,7.33-35.35,26.2-44a5.42,5.42,0,0,1,1.84-.75c9.9-.28,17.32-5.88,25.44-10.7,15.36-9.12,42-4.51,56.39,8.6,15,13.6,20.21,31.2,20.47,50.7a9.6,9.6,0,0,0,3.57,8.05c10.88,9.65,15.37,22.26,15.26,36.55-.11,13.21-4,25.22-12.58,35.45-1.76,2.09-1.93,4.19-1.59,6.91,1.63,13.37,1.38,26.5-5.26,38.87-9,16.87-24,24.65-41.93,28.15-8.4,1.64-8.33,1.58-8.11,10.13.72,27.11,1.33,54.23,2.1,81.34.09,3-.06,4.8-3.8,4.52-3-.23-6.14,1-6.19-4.22-.22-21-.86-41.93-1.23-62.9-.39-22.14-.62-44.28-1-66.42a11.76,11.76,0,0,1,2.14-6.86c6.46-10.3,13.8-20,20.67-30,.65-1,1.29-1.94,1.86-2.95,1.43-2.53,2-5.3-.65-7.13-2.87-2-5.87-1.17-7.88,1.65-4.83,6.77-9.49,13.66-14.21,20.51-.52.75-1,1.53-1.53,2.29ZM651,196c-.51,4.49,3.14,5.24,6.6,5.71.66.09,1.32.11,2,.21,19.31,2.86,30.31,14.17,32.47,33.35.37,3.29,1.11,6.69,5.27,6.55,4.43-.14,5-3.58,4.85-7.2a45,45,0,0,0-44.11-43C655.11,191.36,651.52,191.64,651,196ZM577.32,306.79c1.45,2.56,4,3.77,6.83,2.47s3-3.79,2.07-6.42c-.58-1.74-1.25-3.44-1.87-5.16-4.18-11.73-1.07-23.18,8.5-31.32,2.26-1.92,4.37-4.07,2.36-7.21-1.89-2.94-4.76-2.47-7.59-1.44a12,12,0,0,0-4.36,3.23c-7.6,7.69-10.15,17.29-10.56,27.71A34.1,34.1,0,0,0,577.32,306.79Zm130.87,33.56c-.68-3.42-2.36-6.2-6.29-5.6s-3.78,3.84-3.57,7C699.1,353.61,695,363.24,685,370c-2.67,1.82-5,4-3.25,7.34,2,3.73,5.34,2.35,8.34,1.21a10.18,10.18,0,0,0,2.11-1.32c11.09-7.77,15.76-18.85,16.51-32.68C708.62,343.62,708.51,342,708.19,340.35Zm1.74-43.13c-.65,2.73-.52,5.6,2.73,6.58s5.88-.51,7-3.9c3.22-10.22,2.89-20.29-1.61-30.09-1.47-3.22-4-5.29-7.55-3.62s-2.87,4.87-1.51,7.76a24.81,24.81,0,0,1,2.63,12.49C711.72,289.81,710.82,293.5,709.93,297.22ZM600.76,242c3.32.45,4.65-2,5.25-4.81.3-1.47.35-3,.73-4.43,1.43-5.49,2.77-11,8.22-14.25,3-1.78,5.15-4.4,2.82-7.77s-5.63-2.29-8.44-.46a25.28,25.28,0,0,0-5.21,4.59c-5.11,5.89-7,13.1-8.1,21.31C595.91,238.91,597.19,241.52,600.76,242Z"/><path class="cls-1" d="M542,395.05a43.09,43.09,0,0,1-.48,5.46c-.71,3.42-1.47,6.93-3.51,9.8-2.7,3.8-6.2.45-9.11.23-16.17-1.22-31,3.77-45.44,9.72-6.72,2.76-11.67,3.53-17.67-2.06-8-7.43-18.27-11.57-28.81-14.29-4.46-1.15-5.84-3.69-6.22-7.59-.87-9.18,1.83-17.2,8.6-23.44a17.73,17.73,0,0,0,5.56-9.13,130.7,130.7,0,0,1,7-20.78c.88-2,1.74-4.35,4-4.79,2.62-.51,3.53,2.16,4.64,3.87,3.46,5.29,7,10.57,9.35,16.46,1.4,3.51,3.52,4.68,7.26,4.36A68.9,68.9,0,0,1,499,364.12c3.66.86,6-.22,8.16-3.07,4.29-5.72,8.37-11.64,13.73-16.47,2.17-1.95,4.11-4.94,7.58-3.88s3.25,4.73,4,7.5c1.79,7,1.64,14.19,2.15,21.32a20.52,20.52,0,0,0,2.57,9C540.08,383.59,542.18,389,542,395.05Zm-49.84,8.73c1.46-1.64,1.71-3.85.2-5.44s-3.26-.8-4.52.94c-.69.94-1.77,2.1-2.81,1a2.77,2.77,0,0,1-.06-4c.35-.35.81-.6,1.13-1,2.27-2.71,1.52-5.34-1.88-6.24a5.72,5.72,0,0,0-6,1.46c-1.85,2.06-.87,3.94.84,5.63,1.36,1.34,1.07,2.77-.25,3.86s-2.46,0-3.3-1c-1.14-1.37-2-3.54-4.2-1.52-1.88,1.73-1.71,3.94-.38,5.88,2.5,3.64,6.32,4.55,10.46,4.6S489.35,407,492.18,403.78Zm-27.57-10.32c3.53.18,4.9-2.53,5.16-5.52s-1.33-5.12-4.62-5.19c-3.57-.07-4.84,2.31-5.26,5C459.83,391.38,461.6,393.3,464.61,393.46Zm40.57-3c0-3.38-1.94-4.81-5-4.72-3.57.11-4.74,2.69-4.71,5.74s1.84,4.41,4.65,4.48C503.7,395.76,505.19,393.85,505.18,390.5Z"/><path class="cls-1" d="M456.53,461.71c0,5.32.06,10.65,0,16-.05,3.34.68,6.32,4.57,6.39S466,481.38,466,478c-.09-9.49.05-19-.32-28.47-.14-3.47.88-4,4.06-4,8.17.06,15.36-3.88,22.9-6.35,12.81-4.21,25.67-8.16,39.19-9.3,1.51-.13,4.5-1.59,4.3,1.16-.18,2.37,1.33,6.35-3.39,7.15a17.58,17.58,0,0,0-12.81,9.42c-4.39,8-2.42,16.49,5.29,21.26,2.46,1.53,2.9,3.05,2.46,5.64-1.68,9.88-1.59,10-11.49,12-14.39,2.79-28.32,7.27-42.28,11.6a13.73,13.73,0,0,1-11.41-.92,243.6,243.6,0,0,0-47.44-19.36c-3.24-.93-3.14-3-3.59-5.51-.87-5-1.06-8.79,4.89-11.5s7.32-8.82,6.72-15c-.69-7.23-4.48-12.77-11.45-14.89-4.5-1.38-5.16-4.12-5.65-7.89s.78-4.19,4.07-3.26c14.19,4,27.25,10.41,40.06,17.61,4.88,2.74,7,5.82,6.32,11.38-.49,4.27-.1,8.64-.1,13Zm15.09,6.13c0,4,0,8,0,12,0,3.2.39,6.47,4.33,6.57,3.61.09,4.81-2.67,5.15-6.08.94-9.29.67-18.6.74-27.91,0-3.06-.4-6.18-3.93-6.42s-5.06,2.66-5.26,5.94c-.33,5.31-.51,10.62-.75,15.93Z"/><path class="cls-1" d="M465.79,65.41c.15-20.52,13.87-34.91,33.1-34.72,19,.18,31.18,12.24,31,30.76-.18,20.2-14.17,34.47-33.6,34.25C478,95.5,465.66,83.24,465.79,65.41Zm30.27,12c8.74.36,15.35-6,15.71-15.12.33-8.3-5-14.05-13.25-14.2s-14.11,6.3-14.41,15.78C483.85,72,488.35,77.11,496.06,77.43Z"/><path class="cls-1" d="M410.86,130.49c9-3,14.74-1.72,19.15,4.11s4.37,15.83-.3,22.46a17.49,17.49,0,0,1-19.43,6.61,18.64,18.64,0,0,0-2.8-1c-8.84-1.26-9-1.25-8.63-10.32.5-11.13,1.38-22.24,2.1-33.36a9.94,9.94,0,0,1,.27-2c.71-2.63,1.39-5.39,5-5.15s4.64,2.71,4.66,5.87C410.88,121.9,410.86,126,410.86,130.49Zm12,14.6c-.19-3.28-1.34-5.85-5.29-5.67-3.66.16-7.58,5.7-7.58,10.84,0,3.8,3.09,3.07,5,3.48A7.88,7.88,0,0,0,422.87,145.09Z"/><path class="cls-1" d="M483.49,127.71a65.74,65.74,0,0,1,7,1.28c3.1.86,5.1,2.83,5.35,6.35.49,7.1.44,14.29,3.43,21,1.16,2.61-.46,4.57-2.44,5.93s-4.37,1.42-5.94-.42c-2.28-2.68-4.26-1.85-6.79-.53a13.27,13.27,0,0,1-14.62-1.07c-4.64-3.4-6.11-8.6-5.33-14.24C465.6,135.48,473.85,127.38,483.49,127.71Zm-1.3,9.67c-3.85,0-7.3,4.34-7.52,9.7-.1,2.18-.27,4.59,3,4.6,4,0,7.24-4.54,7.48-10.47C485.51,139,485,137.41,482.19,137.38Z"/><path class="cls-1" d="M279.28,150.09c4.26,2.75,7.7,2,11.06,1.23,2.86-.66,5.38-.69,6.7,2.42,1.44,3.39-.75,5.31-3.22,6.91-5.08,3.3-14.82,3-19.95-.58-6.74-4.74-7.95-11.66-6.69-19.06,1.78-10.49,9.54-16.33,19.35-15.15,6.06.73,10.68,4.94,11.24,10.26.59,5.58-2.26,9.62-8.35,12C286.47,149.31,283.29,149.39,279.28,150.09Zm6.13-11c1.15-.36,2.37-.94,2.18-2.32-.23-1.73-1.83-1.67-3.13-1.7-3.23-.06-5.15,1.77-6.77,5.13C280.76,140.68,283.08,139.83,285.41,139.08Z"/><path class="cls-1" d="M245.3,150.22a12.8,12.8,0,0,0,11.05,1.52c2.77-.75,5.46-.72,6.59,2.54,1,2.83-.63,4.76-2.86,6.25-6.18,4.1-17.31,3.22-22.37-1.75-5.83-5.74-6.59-17.1-1.67-25.05,4-6.44,12.66-9.16,20.22-6.45,4.52,1.61,7.2,4.64,7.6,9.45s-2,8.22-6.12,10.51C254.2,149.21,250.24,149.6,245.3,150.22ZM249,140c1.71-.4,3.68-.38,4.68-2.21a1.19,1.19,0,0,0-.73-1.61,6.44,6.44,0,0,0-6.11.41c-1.39.85-2.65,1.93-2.65,3.83C245.87,141.16,247.42,140.36,249,140Z"/></svg>