<svg id="图层_1" data-name="图层 1" xmlns="http://www.w3.org/2000/svg" viewBox="0 0 1007.07 991.6"><defs><style>.cls-1{fill:#b33b2e;}</style></defs><path class="cls-1" d="M36.18,543c.69,9.23,1.33,18.22,2,27.19a45.53,45.53,0,0,0,.83,5.46c.16.79.85,1.47,1,2.25,2,10.8,3.77,21.64,5.85,32.43,1.19,6.18,2.79,12.28,4.21,18.41.67,2.9.54,5.13-3.13,6.06-1.14.28-2.86,2.82-2.54,3.57,1.11,2.62,2.61,6.52,4.67,7,6.36,1.56,7.94,6.42,9.16,11.31,4.9,19.65,13.29,37.89,21.53,56.26,13.37,29.79,30.39,57.46,49.89,83.38,13.45,17.88,29,34.32,44.65,50.36a429.64,429.64,0,0,0,42.21,38c15,11.76,31.37,21.8,47.27,32.38,6.49,4.33,13.24,8.3,20.06,12.12,6.35,3.55,12.87,6.82,19.44,10,5.68,2.71,11.42,5.33,17.31,7.53,14.15,5.29,28.45,10.22,42.61,15.5,6.19,2.31,12.17,5.19,18.3,7.69a35.57,35.57,0,0,0,7.55,2.5c20.47,3.43,40.92,7,61.46,9.94,13.83,2,27.79,3,41.68,4.56,2.42.27,4.78,1.1,7.18,1.56a17.34,17.34,0,0,0,4.4.47c14.05-1,28.11-2,42.15-3.12,12.42-1,24.91-1.68,37.21-3.52,15.64-2.35,31.23-5.24,46.63-8.81a288.76,288.76,0,0,0,37.82-11.11c21.27-8.12,42.15-17.28,63.13-26.15a68.11,68.11,0,0,0,10-5.58c5-3.2,10-5.45,16.4-3.9,4.84,1.17,13.49-5.77,15.11-10.62.63-1.87,2.29-3.39,4.16-6,1.35,4,2,6.59,3.09,8.94a4.34,4.34,0,0,0,2.83,2.37c.78.08,1.94-1.38,2.55-2.39a27.59,27.59,0,0,1,15.16-12.11c3.93-1.35,7.73-3.21,11.76-4.11,2.07-.46,4.49.69,6.76,1.12-.68,2.05-.73,4.88-2.15,6-7.7,6.27-15.09,13.5-23.89,17.63-5.45,2.56-10.88,5.17-16.09,8.21a37.1,37.1,0,0,0-6.69,4.9c-5,4.73-9.4,4.39-13.27-1.06-.73-1-2.35-1.41-3.55-2.09-.26,1.29-1,2.66-.73,3.85,1.68,8.59-1.9,14.38-10.39,17.1-4.87,1.56-9.45,4.35-14.41,5.22-10.1,1.78-17,9.75-26.61,12.56-15.25,4.47-30.27,9.71-45.4,14.57-5.7,1.83-11.45,3.48-17.16,5.25-4,1.25-7.21.82-8.76-3.78a6.66,6.66,0,0,0-2.17-3.3c-2.18-1.46-4.94-3.79-6.91-3.33s-4,3.63-4.73,6c-1.83,6.08-5.11,10.08-10.93,10.8a166.28,166.28,0,0,1-17.42,1.13c-1.79,0-3.61-1.14-6.28-2.06,1.51-2,2.92-3.07,3.31-4.46.55-2,1.24-5,.25-6s-4.46-1.68-6-.88c-4.16,2.12-7.73,5.38-11.87,7.56-1.38.72-4.11.09-5.62-.87-5.24-3.3-6.6-2.76-7.29,3.6s-2.62,7.35-8.41,4.78a7.36,7.36,0,0,0-5,.12c-4.36,1.62-5.63,1.1-6.5-3.48-.37-2-.4-4-1-5.92a7.43,7.43,0,0,0-2-3c-3.17,1.5-6.52,2.92-9.14,5.15-1,.82-.37,3.74-.11,5.65a36.19,36.19,0,0,0,1.54,5.29c-2.65.47-5.39,1.55-7.93,1.2-1.5-.2-3.06-2.48-3.92-4.16-1.23-2.43-1.17-6.7-2.87-7.45-4-1.76-6.09,2.08-7.93,5.08-2.54,4.15-5.19,5.86-10.63,3.93-3.92-1.38-8.88.56-13.3.16-4.68-.42-9.26-1.92-13.9-2.84-2.43-.49-4.92-.63-7.33-1.15-3.16-.68-6.24-1.75-9.41-2.32-1.83-.33-4-.6-5.61.12-6.83,3.12-13.49.74-20.09-.47-1.16-.21-2.6-3.59-2.44-5.38.61-7.18-2-12-8.63-14.34-5-1.82-8.23.62-7.84,6,.73,9.86.72,9.93-9,8.46-5.61-.85-11.24-1.35-12-9.25-.41-4.31-4.73-5.56-7.85-2.36-4,4.06-7.85,4.09-12.62,2-2.71-1.2-5.77-1.59-8.64-2.47-6.4-2-7.71-4.08-8.16-10.83-.18-2.72-1.55-5.37-2.38-8.06-2.31,1.69-5.09,3-6.84,5.15-4.59,5.61-5.79,6.1-12.26,2.94-4.3-2.1-4.69-3.87-2.09-8,.63-1,1.22-2.72.77-3.5s-2.31-1.4-3.37-1.19c-2.73.53-5.35,1.6-8,2.39-1.71.5-3.77,1.72-5.13,1.2-6.29-2.4-13.15-4.32-18.33-8.32-4.09-3.15-6.44-7.47-12.88-6.5-2.38.36-5.29-3-8-4.55-8.74-5.1-17.59-10-26.17-15.35a11.84,11.84,0,0,1-4.32-6c-.9-2.61-1.85-3.78-4.8-3.81-8.93-.1-11.9-2.61-15.53-11-.69-1.58-3.61-3.23-5.39-3.12-8,.53-11.88-5.28-16.15-10.18-1.05-1.2-.34-4.37.23-6.45.84-3.09,3.68-6.37-.34-8.85-3.6-2.23-6.78-.36-9.07,2.72-1.87,2.51-3.37,2.64-5.53.26-3.41-3.75-7.09-7.26-10.65-10.86.17-.52.34-1,.5-1.56,2-.3,4-.49,5.88-.93a18.48,18.48,0,0,0,3.28-1.42c-.58-1.12-.93-3-1.78-3.23-2.09-.67-4.64-1.36-6.61-.74-7,2.19-12.33,1.08-17-5.24-4.81-6.53-10.69-12.28-16.09-18.39-.55-.62-1.37-1.29-1.44-2-.77-7.59-4.73-12.39-13-13.61.32-.52.63-1,1-1.58l7.46,1.21.69-1.26c-1.6-.92-3.12-2.43-4.82-2.67-7.83-1.14-13.11-4.86-16.72-12.27-2.69-5.53-7.54-10-11.09-15.13a12.68,12.68,0,0,1-1.83-6.33c-.12-2.45.78-4.93.89-7.41.19-4.27-1.86-6.83-6.32-6.28s-7.06-1.31-9-5.3c-5.56-11.51-11.34-22.91-17.19-34.27-2.12-4.12-4.81-7.94-7-12-2-3.82-2.09-7.7,1-11.17,2.72-3.1,1.55-5.14-1.84-6.32-8.26-2.87-11.75-9-12.22-17.34a5.85,5.85,0,0,0-1-2.76c-7.2-10.79-9.19-23.5-13-35.5C26.25,637.76,23.68,627,21,616.2c-1.21-4.79-3.06-10,3.55-12.81.62-.27.85-2.29.65-3.39a4.5,4.5,0,0,0-1.83-2.89c-8.78-5-8.12-13.85-9.13-21.91-1.27-10.2-2-20.45-3.21-30.66-.54-4.63-.81-8.84,3.3-12.29,2.54-2.13,1.39-4.78-.79-6.41-3.14-2.34-3.58-5.43-3.37-8.86.64-10.07,1.36-20.13,2-30.19.13-2.15.39-4.44-.17-6.45-1.86-6.67.41-12.76,1.82-19.09,1.24-5.59,1.65-11.38,2.35-17.09.32-2.63,0-5.43.75-7.9,2.8-8.82,1.77-18.63,7.11-26.84a7.14,7.14,0,0,0,.39-5.8c-3.29-7.85,3.32-14,3.32-21.24,0-.62,1.33-1.74,2.12-1.8,4.47-.38,4.42-3.26,4.56-6.73.12-3.06,1.33-6.08,2.1-9.11.48-1.91,1.43-3.8,1.47-5.71.06-3.54.57-6.14,4.32-8.06s4.11-6.92,1.42-10.48c-1.69-2.23-.06-8,3.12-9.14,3.59-1.31,4.39-3.75,5.17-7.09,1.75-7.53,4.11-14.91,6.23-22.34l1.55,1.13,6-1.26-3.26-4.51-1.66.06c2.49-5.15,4.69-10.47,7.52-15.42q8.42-14.7,17.41-29.07c6.14-9.77,11.55-20,19.86-28.37,3.9-3.93,6.13-9.47,9.38-14.09,2.56-3.63,5-7.81,10.86-4.7.75.4,3.41-1.11,4-2.31,2.94-6.09,5.46-12.39,8.17-18.6,1.27-2.9,2.75-5.29,6.74-4.18,3.32.93,4-1.83,4.26-4.14.58-4.35,2.14-6.53,7.17-5.57,4.38.84,5.79-2.34,5.67-6.22a11.73,11.73,0,0,1,12.72-12c5.41.46,7.68-1.73,7.72-7.44,0-4.76,6.71-10.07,11.15-8.43s5.29-.05,5.32-4c0-5.93,3-8,8.74-6.42,5.26,1.46,7.8.51,8.17-4,.62-7.59,5.47-10.75,11.91-12,4.73-.88,8-2.17,8.83-7.69.26-1.7,3.38-3.11,5.37-4.38,3.7-2.36,7.53-4.51,11.3-6.78,4.78-2.88,9.45-6,14.35-8.65,7.1-3.89,14.41-7.42,21.55-11.25,4.1-2.21,7.73-4.76,12.92-2,3.9,2.07,6.58-.14,8.19-4.54.77-2.12,2.31-4.76,4.17-5.54,6.42-2.66,13.16-4.54,19.74-6.85,2-.7,3.82-1.87,5.78-2.71,3.9-1.67,7.41-6.55,12.27-1.57.17.18,2-1,2.85-1.79,1.78-1.52,3.19-4,5.21-4.63,7.4-2.46,14.94-5.77,22.54-6.08,9.1-.38,16.28-5.89,25-6.75,8.56-.84,16.95-3.23,25.48-4.5,11-1.62,22-3,33-4.13,8.22-.87,16.48-1.53,24.74-1.77,9.48-.27,19-.07,28.45.18a4.63,4.63,0,0,1,3.49,2.5c.61,1.9.23,4.12.27,6.2-1.86,0-3.73.1-5.57-.05-2.55-.22-5.08-.63-7.62-1,0,1.22-.57,3.22,0,3.55,2.68,1.69,5.73,4.29,8.46,4.08,5.2-.4,10.26-2.49,15.38-3.88,1.27-.34,2.67-1.2,3.78-.92,8.42,2.14,16.83,4.33,25.14,6.85,4.45,1.34,8.12.68,11.47-2.44,4-3.74,7.14-4,10.94-1.33-1.9,2.79-3.3,6.16-5.81,8.14a15.06,15.06,0,0,1-9,3.29c-15.27-.55-30.53-1.75-45.79-2.58-3.31-.18-6.65.26-10,.31-4.38.07-9,1.48-12.56-2.77-.41-.49-2.37-.55-2.66-.14-3.83,5.45-9.83,2.7-14.61,3.48-21.34,3.48-42.89,5.67-64.25,9.05-11.46,1.81-22.7,5-34,7.76-2.92.71-5,.45-7-2.1-.91-1.16-3.28-2.13-4.55-1.75s-1.71,2.68-2.67,4c-1.28,1.84-2.32,4.39-4.13,5.24-4.9,2.3-10.14,3.86-15.23,5.7-.58-1.12-1-1.55-1-2-.05-3-.79-5.8-4.35-5.16a4.77,4.77,0,0,0-3.88,6.44c.9,3-.43,4.13-2.93,5.18-14.53,6.12-29.16,12.06-43.45,18.7-8.26,3.84-16,8.77-23.9,13.42-9.86,5.84-19.82,11.56-29.31,18-9.65,6.5-18.8,13.75-28.14,20.7-2.54,1.88-5.09,3.78-7.47,5.85-3.72,3.24-7.3,6-11.94,1.27-.58-.59-2.4,0-3.65.09.08,1.33-.23,2.87.33,4,2.34,4.49,1.38,6.87-3.52,8.21-.92.25-2.34.62-2.53,1.24-2.87,9.31-11.16,14.15-17.11,20.88-9.79,11.09-20,21.86-29.58,33.08-6.16,7.17-11.86,14.77-17.41,22.44s-11,15.84-16.19,23.94c-6.48,10.06-13.32,20-18.84,30.55S78,319.18,73.33,330.38c-4.71,11.38-9.48,22.75-13.61,34.35a252.11,252.11,0,0,0-8.3,28.19c-4.41,19.19-9.24,38.37-12,57.81-2.7,18.8-5.33,37.76-4,57,.66,9.23-.1,18.56-.17,27.84,0,2.45-.55,3.9-3.52,4.34-1.64.24-3.16,2.27-4.36,3.78-.24.31,1.55,2.9,1.77,2.82a47.68,47.68,0,0,0,5.43-2.85C34.84,543.49,35.14,543.4,36.18,543Zm-1.92,81,5.14-5c-1.11-1-2.59-2.94-3.25-2.69-2.1.77-3.9,2.38-5.81,3.66Zm9.58-245.32-5.15,4.68c1.09.84,2.22,2.4,3.25,2.34a4.68,4.68,0,0,0,3.51-2.41C45.82,382.2,44.6,380.6,43.84,378.62Z" transform="translate(-10.08 -18.69)"/><path class="cls-1" d="M595,433.42c4.44-.13,5.94,2.45,6.81,6.13q7.32,30.85,14.8,61.66c2.46,10.19,5.05,20.35,7.55,30.54,1.29,5.27,0,7.42-5.24,8.63-7.79,1.8-15.63,3.36-23.38,5.27-4.76,1.17-7.92-.21-9.19-4.95s-4.09-5.52-8.34-4.52q-46.92,11-93.87,22c-21.55,5-43.12,9.94-64.65,15.07-4.34,1-6.21-.74-7.13-4.6q-7.19-29.86-14.43-59.71c-1.57-6.47-3.22-12.92-4.88-19.37-1.7-6.64-.82-8.52,5.68-10.14,8.06-2,16.19-3.7,24.3-5.48,4.92-1.07,7.5,1.25,8.58,5.92q4.76,20.43,9.65,40.83c.34,1.45.9,2.85,1.29,4.29,1.35,5.12,4.53,6.25,9.46,5,9.83-2.5,19.76-4.65,29.63-7,6.86-1.61,7.55-2.6,5.91-9.72-2-8.59-4.18-17.12-6.3-25.67-2.61-10.5-5.15-21-7.9-31.49-1.71-6.52-2.77-6.9-9.09-5.36-17.45,4.24-34.9,8.48-52.41,12.51-12,2.76-12.68,2.07-15.51-9.76-5.07-21.22-10.31-42.39-15.47-63.58-.55-2.27-1-4.55-1.54-6.82-.77-3.38.61-5.65,3.85-6.46q13.32-3.31,26.72-6.31c3.5-.78,5.63.74,6.49,4.4,3,12.48,6.07,24.92,9.12,37.38.32,1.29.56,2.61,1,3.86,2.12,6.15,3.16,6.92,9.46,5.65,7.34-1.49,14.61-3.33,21.9-5,3.65-.86,5.31-2.67,4.29-6.81-4.6-18.58-8.71-37.29-13.52-55.81-3.13-12.06-2.75-13.23,9.26-15.76,6.67-1.4,13.32-2.92,19.95-4.51,5.91-1.41,7.74-.15,9.13,5.67,4.86,20.4,9.92,40.75,14.84,61.14.91,3.8,3,5.4,6.87,4.51,8.44-1.94,16.9-3.76,25.28-5.92,6-1.55,6.65-3.52,5.15-9.5-3.44-13.71-6.71-27.47-9.67-41.28-.34-1.56,1.38-4.92,2.72-5.27,10-2.64,20-4.91,30.12-6.9,3.58-.7,4.8,2.42,5.48,5.28,4,17,7.95,34,12,51.06,1.73,7.29,3.7,14.52,5.57,21.78,1.3,5.06.3,7.39-4.61,8.64-13.7,3.51-27.47,6.77-41.22,10.09q-11.64,2.81-23.31,5.48c-3.44.8-4.73,2.88-3.9,6.25q7.57,31,15.2,62.05c.86,3.49,2.82,4.78,6.66,3.83,10.83-2.68,21.72-5.1,32.62-7.42,7-1.5,8.24-3,6.58-9.88-3.31-13.76-6.74-27.48-10.1-41.23-.47-1.93-.84-3.9-1.19-5.87-.55-3.11.64-5.32,3.74-6.06C575.48,437.82,585.22,435.64,595,433.42Z" transform="translate(-10.08 -18.69)"/><path class="cls-1" d="M211.59,494.2c2.85-3.93,8.29-3.57,12.88-4.71,15.19-3.77,30.52-6.93,45.77-10.48,8.27-1.92,9.19-3.43,7.36-11.9-2.08-9.6-4.34-19.17-6.68-28.71-1.47-5.95-3.75-7.11-9.9-5.67Q211,444.48,160.9,456.16c-12.32,2.85-24.71,5.37-37,8.2-4.18.95-6.31-.54-7.12-4.61q-2.09-10.54-4.38-21c-1-4.59,1.58-6.41,5.45-7.3,14.76-3.39,29.52-6.74,44.27-10.16,14.91-3.47,29.79-7.06,44.7-10.51,11.66-2.7,23.37-5.22,35-7.92q23.55-5.47,47.07-11.12c7.57-1.81,8.62-1.33,10.43,6.11Q312,449.91,324.61,502c2.08,8.65,1.39,9.45-7.36,11.39-6.83,1.51-13.64,3.1-20.39,4.94-3.4.93-5.83.63-7.22-3-2-5.3-5.55-6.37-11.1-5-30.39,7.46-60.86,14.6-91.33,21.76-4.33,1-6.13,4.06-5.31,7.7q5.22,23.11,11.3,46c1.69,6.36,6.71,9.1,13.13,8.12,10.18-1.56,20.39-3.14,30.42-5.44,21.72-5,43.35-10.4,65-15.73,4.84-1.2,9.63-2.65,14.38-4.18,7.44-2.39,11-8,11.34-15.42a182.72,182.72,0,0,0-.54-19.43c-.4-6.2.65-7.18,6.54-5.73,7.9,2,15.93,3.47,23.75,5.69,2.36.68,5.84,2.93,6,4.76,1.35,12.08,2.38,24.31-1.45,36.16-4.44,13.74-14.89,21.56-28.05,25.48C315,605.72,296,610.87,276.9,615.45c-21.2,5.09-42.57,9.57-64,13.82a64.56,64.56,0,0,1-19.83,1.12C173.6,628.06,163.92,618,158,599c-3.32-10.62-5.89-21.49-8.48-32.32-6.09-25.42-12-50.87-17.95-76.32-1.29-5.54-.32-7.17,5.28-8.54q11.63-2.83,23.34-5.36c5.25-1.13,6.82.2,7.79,5.54.77,4.25,1.86,8.44,2.88,12.65,1.09,4.49,3.71,6.4,8.45,5.23,8.09-2,16.19-3.93,24.34-5.62C206,493.78,208.58,494.2,211.59,494.2Z" transform="translate(-10.08 -18.69)"/><path class="cls-1" d="M853.63,327.35c-1.48,1.4-3,4.1-5.14,4.66-15.14,4-30.4,7.44-45.6,11.18a105.62,105.62,0,0,0-14.27,4.27c-1.2.48-2.3,3.63-1.86,5.07s3,3.26,4.44,3.08c6.09-.82,12.11-2.19,18.11-3.57,10.06-2.32,20.06-4.9,30.12-7.18,6.52-1.48,8.23-.22,9.88,6.33q7.29,29.06,14.63,58.09c1.89,7.48.64,9.54-6.84,11.33-15.06,3.61-30.11,7.27-45.18,10.85-3,.71-5.58,1.49-4.74,5.47.77,3.68,3.12,4.3,6.36,3.56q18.51-4.22,37-8.38c8.28-1.86,16.59-3.58,24.85-5.55,4.25-1,6.3.87,7.2,4.71,1.11,4.7,2,9.47,3.34,14.1,1.27,4.28-.45,6.35-4.36,7.25-18.82,4.35-37.63,8.78-56.48,13-9.53,2.12-10,2.65-7.92,12.38.53,2.44.83,4.93,1.39,7.37,1.63,7.07,1.33,7.75-5.9,9.52-6.79,1.66-13.69,2.89-20.46,4.62-4.53,1.16-6.59-.82-7.56-4.83-1.14-4.7-2.3-9.39-3.38-14.09-.71-3.07-2.57-4.08-5.54-3.37l-54.93,13c-1.13.26-2.25.59-3.4.82-8.74,1.75-9.92.89-11.77-8-.71-3.39-1.85-6.68-2.75-10-1.13-4.21.33-6.47,4.76-7.47,19.47-4.43,38.89-9.07,58.31-13.69,3.38-.8,8-.42,7.51-5.92-.41-4.2-3.09-4.87-9.37-3.45-14.93,3.4-29.91,6.56-44.85,9.89-4.53,1-6.63-1.35-7.54-5.21-2.89-12.32-5.66-24.67-8.49-37-1.86-8.12-3.82-16.2-5.59-24.33-1.53-7.08-.72-8.41,6.45-10,10.55-2.4,21.16-4.55,31.73-6.89,3.89-.86,7.74-1.93,11.59-2.95,2.83-.74,5-1.94,4.08-5.55s-2.92-5.18-6.55-4.29c-6.79,1.67-13.54,3.49-20.34,5.11-9.88,2.37-19.8,4.56-29.68,6.93-4.39,1.05-7.16-.49-8.37-4.77-1.14-4-2.18-8-3.19-12.06-.9-3.58.46-5.7,4.14-6.55,14.12-3.23,28.23-6.55,42.34-9.85,3.08-.71,6.16-1.42,9.23-2.18s5.23-2,5.25-5.64,2.66-4.55,5.66-5.14q10.24-2,20.47-4.2c3.28-.7,6.06-.78,8.42,2.43.86,1.17,3.52,1.86,5.1,1.52,15.94-3.4,31.83-7.06,47.73-10.64,3.57-.81,7.2-1.41,10.73-2.39,4.73-1.31,7.35.49,8.34,5.09C851.64,317.81,852.48,321.88,853.63,327.35ZM740.77,426.09c7.77-1.78,14.07-3.21,20.36-4.66,2.7-.62,5.42-1.38,4.52-5.09-.77-3.2-2.71-4.76-6.22-3.95-6.29,1.45-12.66,2.6-18.88,4.29-1.53.42-3.94,2.91-3.68,3.66C737.66,422.58,739.56,424.44,740.77,426.09Zm56-41.1c7.91-1.75,15.1-3.07,22.07-5.11,1.45-.42,2.65-3.44,2.9-5.4.12-.91-2.5-3.27-3.51-3.08-7.63,1.48-15.23,3.25-22.7,5.41-1.07.31-2.08,3.25-1.88,4.82C793.78,382.93,795.75,384,796.74,385Zm26.59,12c-7.5,1.76-13.78,3.27-20.08,4.7-3.16.72-3.88,2.74-3.26,5.6.69,3.14,2.73,3.89,5.61,3.21,6-1.42,12-2.75,17.93-4.26,2.47-.62,5.34-1.74,4.2-4.91C827.07,399.51,824.71,398.29,823.33,397Zm-67.7-11.54c-7.75,1.78-14.31,3-20.65,4.94-1.57.48-3.5,3.39-3.37,5,.23,2.84,2.83,3.74,5.72,3.08,6.15-1.42,12.31-2.87,18.5-4.12,2.89-.58,4.35-2.33,3.46-4.87C758.68,387.77,756.64,386.52,755.63,385.46Z" transform="translate(-10.08 -18.69)"/><path class="cls-1" d="M684.61,62.11c2,1.5,3.61,3.09,5.5,3.91,2.42,1.06,5.52,2.7,7.61,2,4.37-1.51,6.85.41,8.94,3.31,3.86,5.35,9.6,6.88,15.48,7.86,5.07.84,9.38,2.25,11.3,7.58.28.76.69,1.79,1.31,2,4.67,2,9.28,4.18,14.13,5.58,9.94,2.86,20.72,3.92,26.51,14.39a5.9,5.9,0,0,0,2.1,2.11c6,3.49,12.21,6.7,18.07,10.42,2.44,1.55,4.11,4.27,6.34,6.22,3.91,3.4,4.82,2.88,6.56-2,.59-1.65,2.73-3.76,4.28-3.86a8.1,8.1,0,0,1,8.36,4.91c-7,3.44-8.77,7.89-5.47,13.12,2.38,3.77,6.12,4.77,9.8,3.19,1.64-.7,2.41-3.78,3.26-5.9.46-1.19.08-2.68.41-3.95.77-2.91,2.76-3.57,5.38-2.42a8.37,8.37,0,0,1,1.95,1.55c7.48,6.45,14.89,13,22.46,19.33,2.53,2.12,3.08,4.39,2.36,7.5-1,4.28-.9,8.06,5.07,8.61,1.09.1,2.26,2.12,2.92,3.48,1.43,3,3.54,3.76,5.92,1.66,2.72-2.41,4.48-1.24,6.26.88,6,7.13,12,14.22,17.85,21.49a8,8,0,0,1,1.49,5c-.39,7.19-.5,7.18,4.39,10.19v8.05l7.74-5.31,1.22-1.92c1,1.73,1.91,3.5,3,5.17q6.4,9.8,12.92,19.54c2,3,4.41,5.83,6.31,8.94a62.22,62.22,0,0,1,3.51,7.48c.68,1.51.86,3.53,2,4.49,9.62,8.27,13.49,20.05,19,30.77,4.28,8.26,8.55,16.54,12.27,25.06a285.44,285.44,0,0,1,10.94,28.24c1.78,5.65,1.72,11.87,2.62,17.82.17,1.12.69,2.71,1.52,3.11,3,1.48,3.57,3.61,3.64,6.86a11.81,11.81,0,0,0,3.33,7.16c3.43,3.56,4.53,6.71,1.14,10.87a7.06,7.06,0,0,0-1.66,5A204.14,204.14,0,0,0,999.27,412c1.43,4.91-1.33,7.81-3.73,11.19-1.55,2.19-2.75,4.63-4.11,7,2.69.9,5.33,2.12,8.09,2.61,2.51.45,5.16.1,8.72.1-1.88,3-3.39,5.33-4.91,7.7-.54.84-1.54,1.66-1.57,2.51-.07,2.7.21,5.42.36,8.13,2.2-.74,4.43-1.43,6.61-2.25a30.12,30.12,0,0,0,3.4-2c1,7.3,2.07,13.89,2.47,20.53.07,1.05-3.1,2.22-4.65,3.48s-4.21,2.76-4.12,4c.47,6.66-1.25,13.88,3.81,19.61a54,54,0,0,0,4.75,4.3c2.91,2.59,4.09,5.38.69,8.42-2.46,2.19-2.42,4.22-.65,7,3.68,5.73,3,15-1.44,20-5.64,6.4-4.69,14.21-4.85,21.76,0,.94,1.27,2.27,2.28,2.82,3.74,2,5,5.1,2,8A126.4,126.4,0,0,1,997.49,579c-2.18,1.57-5.46,2.37-4.19,5.63.72,1.87,3.1,3.5,5.11,4.4,11.42,5.13,13.48,8.53,8.05,19.08-.44.85-1.11,2-1.89,2.22C998.3,612,996,617.14,994,622.49c3,3.39,3.65,3.45,9,.48.25.95.88,1.93.65,2.64-2.12,6.73-2.89,13.84-8.54,19.3-6.06,5.87-5.59,6.45-1.44,13.54,2.4,4.08-.4,7.53-2.87,9.66-5.33,4.62-5.7,9.73-5.67,16.42,0,7.87-3.1,16.56-9.93,20.91-8.49,5.43-18.46,8.56-27.8,12.67l-1.16-1.18a35.82,35.82,0,0,1,1.2-4.38c4.15-10.14,8.63-20.16,12.51-30.41s6.84-20.9,10.9-31.09c1.44-3.59,4.55-6.82,7.59-9.4,4.46-3.78,4.44-4.74,1-9.32-1.6-2.16-1.9-6-1.39-8.85,2.22-12.26,5.1-24.39,7.48-36.62,2-10.09,3.78-20.22,5.2-30.39.49-3.53-1.21-7.41-.51-10.85,2.46-12.17.64-24.36,1-36.53.18-5.68,2.78-11.36,2.54-17s-3.13-10.93-4.07-16.51c-2.52-15.09-3.89-30.42-7.08-45.36-4.48-20.95-9.22-41.95-15.65-62.37-5.77-18.35-13.78-36-21.14-53.84-4.45-10.75-8.93-21.57-14.53-31.73C926,272.6,919.08,263.73,913,254.44c-15.14-23-32.61-44.16-51.09-64.49a341.67,341.67,0,0,0-52-47.07c-15.58-11.3-31.19-22.58-47.27-33.14-9.29-6.08-19.45-10.86-29.36-15.94-12.37-6.35-24.86-12.46-37.39-18.5-2.34-1.13-5.1-1.33-7.62-2.12C680.49,70.75,680.41,70.5,684.61,62.11ZM966.67,315.86a35.35,35.35,0,0,0-5.1-.77,25.78,25.78,0,0,0-4.05.69c.2.9.11,2.21.68,2.62,1.23.92,3.07,2.19,4.17,1.83C963.83,319.76,964.82,317.86,966.67,315.86Z" transform="translate(-10.08 -18.69)"/><path class="cls-1" d="M658.14,504.9c.32-16.26,1.46-32.55.72-48.75a261.09,261.09,0,0,0-5.44-40.48C648.8,393,643.17,370.62,638,348.11c-2-8.75-4-17.5-6.21-26.21-1.14-4.57.46-6.81,5-7.82,21.6-4.85,43.16-9.83,64.73-14.8,5.67-1.31,11.35-2.59,16.95-4.14,4.9-1.36,5.86-3.41,3.2-7.58-2.49-3.91-1.38-6.14,2.39-7.81,7.76-3.43,15.52-6.86,23.31-10.22,3.3-1.43,6.13-.72,8.45,2.15,2.71,3.36,5.27,6.9,8.4,9.82a7.86,7.86,0,0,0,6.1,1.73c22.88-5.14,45.7-10.55,68.54-15.9,7.45-1.75,9.31-.49,10.92,7.22.89,4.24,2,8.43,3,12.64,1.08,4.41-1.13,6.65-5.1,7.56-36.84,8.45-73.69,16.8-110.52,25.31-20.43,4.72-40.81,9.65-61.2,14.54-5.16,1.24-5.42,2.53-3.94,7.77,2.71,9.6,5.3,19.26,7.32,29,4.86,23.62,10.05,47.2,13.82,71,3.71,23.49,2.42,47.17-1.08,70.68-1.16,7.78-4.18,9.11-11.29,5.92-6.53-2.93-13.29-5.32-19.78-8.34-2-.94-3.49-3.12-5.22-4.74Z" transform="translate(-10.08 -18.69)"/><path class="cls-1" d="M99.13,376.85c1.53-4.68,2.61-8.45,8.35-8,3.68.32,6.71-3.7,11.43.05,4,3.2,1.34-2.57,2.54-3.74.26-.2.49-.53.78-.59,6.85-1.51,13.66-3.35,20.59-4.35,4.33-.62,8.85.12,13.28.08,1.4,0,3.32-.11,4.11-1,4.9-5.4,11.84-5.42,18.09-7.21,6-1.73,12.09-3.33,18.17-4.86,9.51-2.41,19-4.85,28.57-7,14.42-3.26,28.92-6.23,43.35-9.44,9-2,18-4.24,27-6.36,5.87-1.37,11.72-2.86,17.63-4,4.06-.81,8.9,0,12.17-1.94,6.07-3.61,12.34-3.84,18.88-4.1,1,0,1.91-1.2,2.91-1.75,6.93-3.83,14.38-4.65,22.16-4.11a15.51,15.51,0,0,0,6.42-1.39c2.13-.84,3.92-2.83,6.07-3.27,6.28-1.29,12.69-1.9,19-3.1,2.39-.45,4.55-2,6.93-2.65,11.1-2.85,22.19-5.77,33.38-8.24,14.15-3.12,28.47-5.52,42.59-8.77,20.07-4.62,40-9.86,60.06-14.59,11.46-2.7,22.93-5.81,34.58-7,7.75-.82,14.13-5.21,22-5.71,7.65-.48,15.12-3.52,22.71-5.25,4.13-1,8.39-1.32,12.51-2.29,8.35-2,16.62-4.23,25-6.2,8.51-2,17.06-3.85,25.63-5.61,1.38-.28,3,.61,4.4.37,2.47-.44,5.29-.75,7.2-2.16,3.93-2.89,7.53-3.84,11.84-1,.88.57,3,.72,3.5.14,4.84-5.44,10.64-7.52,17.88-6.36,1.41.23,3.14-1.36,4.69-2.18,3-1.6,5.63-2.15,7.35,1.76,1.29,3,.35,4.18-2.71,4.79-11.64,2.35-23.3,4.64-34.85,7.4-24.7,5.92-49.31,12.21-74,18.17-13.73,3.32-27.55,6.3-41.33,9.39-21.25,4.76-42.53,9.37-63.75,14.24q-50.32,11.55-100.57,23.35c-12.13,2.82-24.22,5.84-36.36,8.62-2.2.5-4.59.14-6.88.33-1.77.16-3.86.05-5.24.94-8.77,5.64-19.1,5.34-28.67,7.89-4.9,1.3-9.88,2.34-14.83,3.47-9.14,2.09-18.3,4.09-27.43,6.25-5.59,1.33-11.13,2.9-16.7,4.33-6.09,1.57-12.16,3.25-18.29,4.61q-26.25,5.83-52.54,11.43c-8.43,1.8-17,3.16-25.35,5.13-10.65,2.5-21.15,5.61-31.8,8.11-13.44,3.16-26.94,6-40.44,8.91C114,373.89,106.87,375.27,99.13,376.85Z" transform="translate(-10.08 -18.69)"/><path class="cls-1" d="M48.21,541.85c0-13.08-.77-26.23.18-39.24,1.51-20.85,3.75-41.68,6.45-62.41a357.08,357.08,0,0,1,25.28-92.15c7.71-18.39,16.87-36.18,25.63-54.12.74-1.51,3.86-3.32,5-2.87,3,1.14,2.27,4,1,6.39-4.23,8.29-8.15,16.77-12.8,24.82C90.55,337,85.79,353.17,79.36,368.7c-.74,1.79,0,4.49.71,6.52,1.2,3.33.81,5.15-2,8-3.59,3.72-6.14,9-7.71,14a293.43,293.43,0,0,0-7.85,30.92c-2,9.91-3.19,20-4.19,30.07C57,471.93,56.61,485.71,55,499.35c-2.13,18.18,1.06,36,2.39,54A368.33,368.33,0,0,0,74.64,641.8,660.43,660.43,0,0,0,99.5,706.93c11.66,25.79,27.14,49.51,43.38,72.77,6.78,9.71,15.21,17.78,22.2,27.18,3.75,5,9.12,7,15.52,4.87,6.59-2.23,13.12-4.68,19.84-6.41,11.23-2.9,22.6-5.21,33.88-7.92,18.43-4.44,36.82-9,55.24-13.49q9.65-2.34,19.36-4.36a11.23,11.23,0,0,1,5.39-.17,5.27,5.27,0,0,1,3.06,3.28c.19.78-1.47,2.65-2.62,3-4,1.25-8.06,2.07-12.11,3q-36.92,8.55-73.85,17.08Q206,811,183.09,816.05c-6.54,1.43-6.91,2.36-2.93,7.86.67.93.43,2.51.6,3.79a28.36,28.36,0,0,1-3-2.24c-1.05-1-1.81-3.09-2.84-3.19-8.9-.85-12.9-8.2-17.31-14-13.52-17.66-26.7-35.64-39-54.17a449.21,449.21,0,0,1-24.29-42.37c-5.08-9.85-8.69-20.45-12.81-30.78-4-10.16-8.61-20.18-11.73-30.63-6.95-23.24-13.2-46.68-15.82-70.93-1.12-10.4-2.85-20.73-4.24-31.1-.29-2.14-.34-4.31-.5-6.46Z" transform="translate(-10.08 -18.69)"/><path class="cls-1" d="M424.83,751.94c6.11-1.39,12.21-2.83,18.34-4.14,4.66-1,9.39-1.66,14-2.79,10.79-2.65,21.51-5.6,32.31-8.24,14.83-3.62,29.57-7.87,44.6-10.37,15.25-2.54,29.84-7.42,44.87-10.63,6-1.29,12.08-2.33,18.11-3.54,1.61-.32,3.18-.91,4.79-1.2,4.46-.8,9-1.36,13.4-2.28s8.62-2.15,12.92-3.25c5.29-1.34,10.6-2.62,15.87-4,7.85-2.11,15.63-4.53,23.53-6.44,20.18-4.88,40.31-10.08,60.69-14,5.93-1.14,11.69-2.21,17.55-3.91,12.68-3.67,25.76-6,38.7-8.75,2.43-.53,5.33-1.28,6.09,2.23.73,3.33-1,5.28-4.37,6.06-15,3.52-30,7.17-45,10.66q-20.6,4.8-41.24,9.35c-13.31,2.91-26.71,5.44-40,8.51-11.62,2.69-23.07,6.06-34.67,8.84-18.44,4.44-36.95,8.62-55.42,13-20.41,4.79-40.78,9.77-61.21,14.43q-34.79,7.94-69.67,15.4a27,27,0,0,1-9.43.36c-1.91-.29-3.58-2.16-5.36-3.31Z" transform="translate(-10.08 -18.69)"/><path class="cls-1" d="M698,93c-5.51,4-10.16,1.73-14.69-.17a376,376,0,0,0-88.68-24.71c-18.23-2.81-36.67-4.27-55-6.29-25-2.74-50-1.11-74.71,2.08-20.5,2.64-40.82,7-61.05,11.42-11.81,2.56-23.35,6.43-34.92,10-9.46,2.92-19,5.81-28.12,9.57-10.36,4.26-20.36,9.4-30.44,14.31-6,2.95-11.91,6.31-18,9.22-1.15.55-2.91-.17-4.38-.3.17-1.55-.21-3.55.63-4.53a15.36,15.36,0,0,1,5.29-3.57c10.72-4.91,21.5-9.67,32.25-14.52,8.16-3.68,16-8.26,24.48-11,21.64-7,43.42-13.52,65.38-19.41a262.88,262.88,0,0,1,36.14-6.73c24.24-3,48.46-6.82,73.05-4.62,6.27.56,12.62.38,18.87,1.06C561,56.73,577.8,58.65,594.58,61a246.86,246.86,0,0,1,26.95,5.19C636.82,70.05,652.14,74,667.11,79c8.87,3,17.07,7.91,25.59,11.93C694.28,91.66,696,92.22,698,93Z" transform="translate(-10.08 -18.69)"/><path class="cls-1" d="M623.19,960c-5.74,1.55-11.39,3.66-17.23,4.52-16.27,2.42-32.58,4.62-48.94,6.33-13,1.36-26.07,2-39.12,2.7-3.8.2-7.63-.46-11.45-.64-7.29-.34-14.66-.09-21.87-1-16.61-2.2-33.15-4.91-49.71-7.55-10.65-1.7-21.31-3.41-31.86-5.63-3.71-.77-7.06-3.21-10.68-4.6a45.64,45.64,0,0,0-8.28-2.32c-2.34-.42-4.94.23-7.14-.48-10.6-3.43-21.19-6.92-31.61-10.84-10.84-4.07-21.47-8.65-32.19-13a3,3,0,0,1-1.33-.67c-1.35-1.7-2.61-3.47-3.91-5.22,2.1,0,4.46-.58,6.24.18,11.24,4.86,22.26,10.25,33.56,15,4.82,2,10.21,2.63,15.23,4.22,11.4,3.59,22.68,7.6,34.14,11,5.21,1.56,10.73,2.1,16.09,3.23,7.27,1.53,14.47,3.43,21.78,4.72,8,1.42,16,2.49,24.12,3.41,10.56,1.2,21.4,1.07,31.64,3.49,7.3,1.73,14,.07,21,.16,11.59.13,23.17-.72,34.76-.92,27.05-.45,53.19-6.88,79.51-12a247.88,247.88,0,0,0,26-6.23c6.86-2.13,13.32-5.53,19.95-8.38a9.62,9.62,0,0,1,2.26-1c10.86-1.32,19.69-7.72,29.42-11.79,9.38-3.93,18.41-8.7,27.51-13.26,4.52-2.26,8.65-5.39,13.31-7.26,9.42-3.79,16.56-11.06,25.29-15.83,1.16-.64,2.41-1.63,3.58-1.57s3.08.86,3.61,1.88,0,3.26-.87,3.76c-5.73,3.49-11.64,6.67-17.5,9.94-.86.48-1.77.88-2.59,1.41-6.94,4.48-13.54,9.61-20.85,13.36-12.42,6.36-25.1,12.28-38,17.62C674.5,946,651.6,954.45,627.7,959.88c-1.44.33-2.93.45-4.4.67Z" transform="translate(-10.08 -18.69)"/><path class="cls-1" d="M652.43,601c2.73,1,5.42,1.45,7.57,2.8,7.77,4.88,9.69,20.29,3,26.64a30.93,30.93,0,0,1-11.71,7.17c-8.73,2.65-17.8,4.15-26.7,6.25-3.89.91-5.9-.43-6.8-4.31q-6-26-12.3-51.95c-1.15-4.75.12-7.06,5.15-7.91,7-1.18,13.92-3.19,20.93-4.49a48.88,48.88,0,0,1,11.38-.86c12.63.66,18,15.46,10.65,23.81A10.55,10.55,0,0,0,652.43,601ZM632,630.68c5.43-1.62,10.68-2.36,15-4.79,2.46-1.39,4.45-5.49,4.58-8.46.1-2.09-3.18-6.07-5.12-6.18-5.15-.28-10.42.91-15.54,2-.76.15-1.56,2.85-1.39,4.26C630,621.42,631,625.29,632,630.68ZM633.5,586l-.64-1.39c-3.14,1.91-8,3.2-9,5.91s.8,7.63,2.92,10.39c.91,1.19,5.68-.53,8.69-1a5.68,5.68,0,0,0,1.79-.86c3-1.69,6.06-3.49,4.94-7.62S638.25,585,633.5,586Z" transform="translate(-10.08 -18.69)"/><path class="cls-1" d="M473.49,655.05c-2-7.32-4-14.64-5.88-22-1.35-5.14-2.73-10.28-3.79-15.49-.23-1.1.63-3.34,1.41-3.56,3.48-1,7.13-1.93,10.66-1.76,1.21.07,2.8,3.33,3.29,5.35,3.2,13.26,6.1,26.6,9.19,39.88,1,4.21,2.26,8.35,3.4,12.52.94,3.45-.48,5.43-3.87,6.18a29.28,29.28,0,0,0-5.32,1.28c-3.76,1.65-6.43.85-9.12-2.36-8.47-10-17.21-19.87-25.85-29.77-1.31-1.49-2.67-2.93-5.1-5.59.45,2.68.58,4,.91,5.27,2.93,11.44,5.74,22.92,8.92,34.29,1.21,4.32-.49,5.65-4.31,6.38-8.65,1.64-9.47,1.31-11.49-7.24q-5.69-24-11.14-48.15c-1.58-6.91-1.38-6.63,5.19-8.31,7.35-1.89,12.47-.17,17.22,6.15,6.47,8.63,14.08,16.4,21.26,24.48a34.26,34.26,0,0,0,3.51,3Z" transform="translate(-10.08 -18.69)"/><path class="cls-1" d="M864.34,586.42c-9.88,6.77-16.54,6-23.23-1.83-2.49-2.9-4.79-6-7.66-8.51a11.43,11.43,0,0,0-6.54-2.57c-3.9-.17-5.77,1.94-4.58,6.11,1.14,4,2,8.07,3.14,12.06,1,3.43-.18,5.47-3.56,6.39-.64.17-1.26.43-1.9.59-8.58,2.18-9.07,1.85-11.09-6.68-3.68-15.53-7.44-31.05-11.13-46.58-1.85-7.78-1.18-8.81,6.59-10.53,6.65-1.47,13.29-3,20-4.36a37.2,37.2,0,0,1,8.43-.65c7.05.28,13.72,1.81,17.23,8.84,4.1,8.21,4.57,16.56-1.88,23.76-3.37,3.76-1.9,6,.82,8.64C854,576.06,859,581.07,864.34,586.42Zm-37.18-44.69c-7.7,0-12.29,2.44-12.17,6.39.22,8,3.14,13.81,6.9,13.79,8.24-.06,15.51-5.34,15.47-11.22C837.31,545.06,833.48,541.7,827.16,541.73Z" transform="translate(-10.08 -18.69)"/><path class="cls-1" d="M240.48,688.53c.25-14.38,9.24-25.79,23.21-29.45,15.57-4.08,29.75.86,36.8,13.71,6.17,11.24,8,23.53,2.83,35.53-3.45,8-9.59,14.36-18.9,16.29-6.81,1.42-13.56,3.52-20.59,1C248.94,720.12,240.16,706.25,240.48,688.53Zm50.31,7c-1.44-4.88-2.44-9.94-4.39-14.6-3.35-8-9.48-11.64-16.24-10.33-8.56,1.67-13.29,6.82-13.19,16A47.08,47.08,0,0,0,260,702.56a17.86,17.86,0,0,0,7.41,8.84C276.68,716.37,291.05,712.66,290.79,695.52Z" transform="translate(-10.08 -18.69)"/><path class="cls-1" d="M737,616.93c-4,1.44-6.58,2.52-9.25,3.3-4.53,1.33-8.38.52-11.52-3.46s-6.6-7.48-9.93-11.2c-2.71-3-6-3.68-9.42-1.66s-1.61,4.86-.77,7.55a34.55,34.55,0,0,1,1.53,6.79c.27,2.81.93,7.75,0,8.15-3.82,1.55-8.21,1.81-12.42,2.16-.64.06-1.86-1.81-2.14-3-4.36-17.57-8.72-35.14-12.8-52.77-1.5-6.47-.63-7.32,5.94-8.78s13.23-3.46,20-4.27c5.34-.65,11.27-1.14,16.19.51,13,4.34,17.26,20.71,8.85,31.57-2.53,3.27-2.43,5.68.52,8.63C726.68,605.5,731.35,610.85,737,616.93Zm-27-37c0-5.45-3.13-8.77-8.52-8.91-8.9-.23-13.64,1.9-13.63,6.11,0,8.08,2.95,14.19,6.76,14.15C704,591.2,709.94,586.8,710,579.94Z" transform="translate(-10.08 -18.69)"/><path class="cls-1" d="M186.86,704.74c.67,3.81,1.18,7.66,2.06,11.42,1.74,7.45,3.58,14.88,5.57,22.27,1.36,5.07-1.45,6.51-5.59,7.24-5.81,1-7.58.11-8.67-4.49-4-17-8-34-12.25-50.91-1.06-4.21.08-6.32,4.05-7.44,6.94-2,12.71-2.14,17.83,4.9,5.93,8.16,13.44,15.16,20.19,22.73,1.91,2.14,3.56,4.52,5.34,6.8l1.88-1c-1.06-3.91-2.17-7.8-3.16-11.72q-3-11.85-5.87-23.72c-1-3.94-.28-6.69,4.52-7.56,7.74-1.39,8-1.55,9.43,4.55,3.78,16.19,7.52,32.39,11.1,48.62.66,3,2.51,6.73-1.35,9.06-4.54,2.73-12.64,2.33-15.45-.81-8-8.92-15.8-18-23.73-27-1.23-1.4-2.71-2.58-4.07-3.86Z" transform="translate(-10.08 -18.69)"/><path class="cls-1" d="M834.83,206.87c3-9.83,13.46-11.65,20.27-4.35,5.55,6,11.07,12,16.28,18.23,2,2.44,3.19,5.61,4.72,8.47.38.71.45,1.82,1,2.19,12,7.73,18.11,20.51,26,31.57a319.42,319.42,0,0,1,37.08,70c6,15.56,13.81,30.61,16.33,47.51.91,6.07,4,11.81,5.87,17.76,4.07,12.83,7.62,25.7,7.88,39.4.11,5.55,3.24,11,3.89,16.6,1.14,9.85,1.5,19.79,2,29.7,0,.89-1.62,2.72-2.14,2.6a7.37,7.37,0,0,1-3.3-2.38c-.49-.52-.45-1.57-.56-2.39-1.82-14-3.53-28-5.5-42-.69-4.93-2.7-9.73-2.91-14.64-.39-9.19-3.78-17.45-6.32-26-1.53-5.19-1.59-10.82-2.41-17-6.41-2.7-5.64-10.88-8.25-16.93-2.8-6.47-3.44-13.84-6-20.47-2-5.34-5.82-10-8.17-15.25A425.07,425.07,0,0,0,893,262c-4-5.8-6.88-12.33-10.27-18.53-.31-.58-.49-1.33-1-1.7-11.27-8.7-19.08-20.62-28.45-31-4.1-4.57-8.22-5.66-13.66-4.54C838.28,206.42,836.85,206.57,834.83,206.87Z" transform="translate(-10.08 -18.69)"/><path class="cls-1" d="M787.5,606.63c-1.59-2-3.58-3.76-4.71-6-3.89-7.6-3.77-7.66-12.19-5.95-1.14.23-2.3.41-3.43.7-10.14,2.67-10,.72-10.21,12.22-.09,3.84-1.48,5.64-5.23,6.54-10.72,2.58-10.6,2.69-9.47-8.14,1.81-17.39,3.65-34.78,5-52.2.4-5,2.45-7.07,7-7.9,13.65-2.44,11-4,17.79,7.15,9,14.77,17.43,29.83,26.38,44.6,2.59,4.28,1.23,6-3,6.86-2.28.48-4.58.85-6.87,1.27Zm-26-47.24-2.08.23c-.46,6-1,12.06-1.35,18.1-.4,7,.66,7.83,7.63,6a10.66,10.66,0,0,0,4.14-1.62c.92-.77,2-2.71,1.61-3.47C768.34,572.16,764.89,565.8,761.53,559.39Z" transform="translate(-10.08 -18.69)"/><path class="cls-1" d="M942,670.9c2.63-6.78,5-13.66,8.07-20.23.68-1.46,3.81-1.77,5.82-2.62.16,2,1,4.36.37,6.09-7.17,18.75-14.13,37.62-22.11,56a274.48,274.48,0,0,1-18.95,36.71c-10.67,17-22.05,33.64-34.26,49.57-7.13,9.32-16.64,16.79-24.73,25.42-2.86,3-4.19,7.55-7,10.6-7.62,8.12-15.57,15.94-23.65,23.6-4.55,4.32-9.59,8.14-14.48,12.1a9.24,9.24,0,0,1-3.86,2.2c-1.25.2-3.17-.24-3.85-1.12-.52-.67,0-2.87.81-3.72,1.92-2.06,4.36-3.61,6.39-5.57,12.18-11.78,24.37-23.53,36.39-35.46,4.46-4.43,8.32-9.46,12.71-14,3.53-3.62,7.54-6.74,11.11-10.32,1.4-1.4,2.17-3.43,3.25-5.16a72.71,72.71,0,0,1,4.48-6.94c3.9-4.9,8.33-9.41,11.94-14.5,2.94-4.12,5-8.89,7.47-13.33,3.65-6.51,6.8-13.39,11.18-19.37,6.17-8.44,10.52-17.81,15.28-26.95,3.74-7.2,6.29-15,9.73-22.38,2.41-5.15,5.54-10,8.11-15.05.78-1.54.78-3.47,1.14-5.22Z" transform="translate(-10.08 -18.69)"/><path class="cls-1" d="M281.93,121.91c-1.46,1.1-2.9,2.22-4.38,3.29-2.05,1.49-4.13,2.94-6.19,4.41-4.44,3.18-8.79,6.48-13.33,9.51-19,12.68-36.37,27.32-54,41.75-19.77,16.18-35.56,35.86-51.14,55.66-11.9,15.14-22.08,31.63-33,47.51-1.11,1.6-2.39,3.09-3.58,4.62-4.31-2.25-5-4.88-2.54-8.67,14.88-23.09,30-46,48.9-66.1,4-4.24,7.51-8.9,11.5-13.13,1.88-2,4.37-3.38,6.55-5.08a17.26,17.26,0,0,0,2.9-2.54c3-3.69,5.4-8,8.91-11.1,11.89-10.39,23.87-20.73,36.37-30.38C243,140.71,257.11,129.42,273.69,122a57.81,57.81,0,0,1,7.19-2.13Z" transform="translate(-10.08 -18.69)"/><path class="cls-1" d="M310.14,662.19c-4.07.52-5.42-2-6-5.24s.35-6,4-6.81q22.13-5,44.26-10c4.44-1,4.86,2.44,5.56,5.31s1.22,5.74-3,6.46c-2.78.47-5.52,1.21-8.27,1.85-3.88.9-5.58,2.89-4.48,7.19,3.42,13.36,6.45,26.82,9.91,40.17,1.1,4.2-.17,6.14-4.15,7.32-10.38,3.07-10.48,3.19-13-7.29-2.88-11.79-5.54-23.63-8.22-35.46-1.45-6.41-2.57-7.05-8.77-5.13A77.9,77.9,0,0,1,310.14,662.19Z" transform="translate(-10.08 -18.69)"/><path class="cls-1" d="M886.42,543.4c1.6-7.81,3.09-14.45,4.31-21.14,1.28-7,7.1-11.44,13.94-9.89,1.05.24,2.37,3.32,2.07,4.78-1.55,7.49-3,15.07-5.58,22.27-3.68,10.49-4.18,20.58-.26,31.15,2.53,6.82-4.32,13.31-11.31,10.71-2.07-.77-3.36-4.57-4.29-7.24-2.32-6.66-2.78-14-7.69-19.69-7.05-8.21-13.84-16.62-20.8-24.89-3.82-4.54-3.54-5.57,2.25-7.13,8.24-2.23,8.24-2.22,13.35,4.46,3.43,4.49,6.84,9,10.34,13.45A29.63,29.63,0,0,0,886.42,543.4Z" transform="translate(-10.08 -18.69)"/><path class="cls-1" d="M517.77,603.84a11.93,11.93,0,0,1,3-2.7,25.55,25.55,0,0,1,5.77-1.55c4.28-.91,6.29.84,7.27,5.18,3,13.3,6.4,26.5,9.55,39.77,1,4.31,3.27,5.61,7.61,4.36,5.42-1.57,11-2.77,16.51-3.88,5-1,4.92,3.07,5.84,6.2s.08,5.19-3.26,5.94c-11.19,2.51-22.4,5-33.57,7.57-3.08.71-4.79-.29-5.5-3.3q-6.39-27-12.77-53.9C518,606.72,518,605.88,517.77,603.84Z" transform="translate(-10.08 -18.69)"/><path class="cls-1" d="M408,694.78c-.92-1.41-2.67-3-3.16-5-3.44-13.69-6.62-27.44-9.87-41.18-.95-4-1.78-8.11-2.85-12.12s.74-6,4.42-6.8c1.29-.29,2.62-.49,3.89-.86,4.05-1.2,5.95.18,6.94,4.42,4.11,17.62,8.5,35.18,12.88,52.74,1,3.81-.17,6.18-4,7.1C414,693.62,411.71,694,408,694.78Z" transform="translate(-10.08 -18.69)"/><path class="cls-1" d="M584.51,586.2c.66.8,2.8,2.27,3.28,4.17,4,15.48,7.59,31,11.31,46.58.24,1,.36,2,.64,2.93,2.55,8.7-.6,12.73-9.83,11.8-1.58-.16-3.74-2.62-4.22-4.4-3.09-11.58-5.79-23.27-8.63-34.91-1.22-5-2.63-10-3.7-15C571.59,589,573.94,586.33,584.51,586.2Z" transform="translate(-10.08 -18.69)"/><path class="cls-1" d="M977.67,541.81c-.65,8.28-.62,16.69-2.1,24.82-3.3,18-7.39,35.93-11.06,53.91a47.09,47.09,0,0,0-.42,7c-.3,6-3.11,9.27-9,9.78a5.43,5.43,0,0,1-4.16-1.52c-.61-.77-.17-2.9.48-4a53,53,0,0,1,5.45-7.7c4.49-5.21,2.6-11.88,4.11-17.77A315.19,315.19,0,0,0,967.37,571c1.39-10.16,1.8-20.46,2.68-30.7.14-1.64,0-3.55.8-4.81a5.5,5.5,0,0,1,4-2.06c.75,0,2,1.77,2.3,2.94A29.42,29.42,0,0,1,977.67,541.81Z" transform="translate(-10.08 -18.69)"/><path class="cls-1" d="M421.89,752.94c-2.37,6.4-5.61,9.71-12.33,11-19.53,3.91-38.82,9-58.21,13.58-2.63.62-5,.85-5.72-2.71s1.15-5,4.32-5.1a36.9,36.9,0,0,1,4.78.5c1.19.11,2.94.69,3.48.13,7.1-7.36,17.11-6.46,25.81-9,10.62-3.14,21.58-5.15,32.41-7.6C418.1,753.38,419.82,753.24,421.89,752.94Z" transform="translate(-10.08 -18.69)"/><path class="cls-1" d="M860.77,654.73c-3.3,4.64-7.85,6-13,6.67-4.38.57-8.64,2.1-13,3.22-.64.17-1.31.71-1.88.61-11-2-19.67,6.11-30,6.93-1.64.14-3.5.84-4.86.29a6.56,6.56,0,0,1-3.49-3.66c-.23-.78,1.79-2.32,2.92-3.37a3,3,0,0,1,1.88-.6c4.23-.05,8.76.92,12.62-.28s6.69-4.57,11.32-2.64c1,.39,3.14-.55,3.84-1.53,2.34-3.28,5.52-3.36,8.92-3.11,5,.37,9.67-.09,13.58-3.61a2.14,2.14,0,0,1,.86-.5q10.78-2.67,21.58-5.29a12.59,12.59,0,0,1,3.38-.6,48.45,48.45,0,0,1,5.19.76c-.66,1.88-.77,4.77-2.07,5.48C873.15,656.44,867.37,658.57,860.77,654.73Z" transform="translate(-10.08 -18.69)"/><path class="cls-1" d="M188.55,835.86c2,1.09,4.29,1.87,6,3.33,12.36,10.56,24.44,21.45,37,31.82a208.14,208.14,0,0,0,19.41,13.66c3,2,3.56,3.61.6,6.56-22.53-16.51-46-31.79-64.51-53.09Z" transform="translate(-10.08 -18.69)"/><path class="cls-1" d="M833.91,181.4c-1.59.66-3.31,2-4.73,1.78a13.21,13.21,0,0,1-5.57-3.05q-18.83-15.49-37.43-31.24c-1.27-1.09-2.65-3.84-2.13-4.88,1.56-3.1,3.66-1.3,5.6.26q20.64,16.6,41.39,33.1a25,25,0,0,0,3.47,1.95Z" transform="translate(-10.08 -18.69)"/><path class="cls-1" d="M835,870.93l5.67,4.14-2.24,15.21a13.92,13.92,0,0,1-2.27-.87c-5.46-3.15-9.68-2.91-14.75.83-3.72,2.75-7.61,4.75-12.6,2.13,2-2.83,3.63-5.73,5.9-8,.89-.88,3.51-.92,4.86-.29,4.8,2.24,5.43,2,5.76-3.11a3.54,3.54,0,0,1,.71-2.23C828.86,876.21,831.75,873.78,835,870.93Z" transform="translate(-10.08 -18.69)"/><path class="cls-1" d="M739.53,112.67c.78,0,1.37-.29,1.7-.09q13.24,8.1,26.42,16.26c.43.26,1,.48,1.2.87,1,2.17,3.42,5.15,2.72,6.44-1.82,3.36-4.18.33-6.12-.86-7-4.34-13.93-8.95-21.09-13.09C740.45,119.94,739.69,116.69,739.53,112.67Z" transform="translate(-10.08 -18.69)"/><path class="cls-1" d="M970.61,510.5a101.16,101.16,0,0,1,.9-10.9c.26-1.46,1.91-2.67,2.93-4,1.19,1.37,3.23,2.63,3.43,4.13.6,4.59.5,9.26.66,13.9.09,2.79.27,5.58.2,8.37,0,1.19-.22,2.94-1,3.4s-3.06.39-3.57-.29a17.58,17.58,0,0,1-3.49-6.68c-.52-2.51.13-5.26.27-7.91Z" transform="translate(-10.08 -18.69)"/><path class="cls-1" d="M258.52,890.25c6.16,3.76,12.32,7.5,18.47,11.28,2.89,1.78,5.86,3.45,8.55,5.49,1.34,1,2.12,2.77,3.16,4.18-1.55.1-3.47.85-4.6.21-8.2-4.64-16.33-9.42-24.27-14.5-1.53-1-2.11-3.48-3.12-5.27Z" transform="translate(-10.08 -18.69)"/><path class="cls-1" d="M744.47,223.9c2.22-2,3.12-3.36,4.34-3.76,4.38-1.43,8.86-2.57,13.32-3.73,1.11-.29,2.61-.76,3.39-.28a9.18,9.18,0,0,1,3.69,3.91c.29.73-1.41,3.05-2.57,3.38a152.36,152.36,0,0,1-17,3.87C748.44,227.49,746.89,225.55,744.47,223.9Z" transform="translate(-10.08 -18.69)"/><path class="cls-1" d="M728.86,109.11c-1.64.77-3.32,2.23-4.17,1.85-6-2.67-11.93-5.62-17.72-8.77a3.85,3.85,0,0,1-1.22-3.58c.49-1,2.67-2.3,3.44-2,5.85,2.62,11.57,5.56,17.23,8.58C727.28,105.69,727.63,107.09,728.86,109.11Z" transform="translate(-10.08 -18.69)"/><path class="cls-1" d="M943.9,722.87c2.5,1.83,5.23,3.43,7.4,5.58,1.26,1.25,2.6,3.72,2.15,5a7.15,7.15,0,0,1-4.55,3.93c-1.35.31-3.67-1.13-4.72-2.46C940.19,729.92,940.28,727.32,943.9,722.87Z" transform="translate(-10.08 -18.69)"/><path class="cls-1" d="M858.65,846.36c-1.28,4.06-1.62,8.9-4.14,11.92-2,2.47-6.72,2.76-10.23,4-.14-1.31-.88-3-.31-3.83a65.43,65.43,0,0,1,6.55-7.39c2.11-2.17,4.39-4.16,6.59-6.23Z" transform="translate(-10.08 -18.69)"/><path class="cls-1" d="M664.45,64.13c-5.27-1.4-10-2.28-14.32-4-1.42-.57-2-3.32-2.94-5.07,1.6-.73,3.22-2.13,4.79-2.07A13.17,13.17,0,0,1,664.45,64.13Z" transform="translate(-10.08 -18.69)"/><path class="cls-1" d="M338.49,780.38c-4.76,1-8.59,2.15-12.48,2.46-1.28.1-3.61-1.78-3.84-3.05s1.48-3.68,2.73-4a12.82,12.82,0,0,1,6.58.72C333.61,777.25,335.49,778.69,338.49,780.38Z" transform="translate(-10.08 -18.69)"/><path class="cls-1" d="M793.14,876.6c1.07,6-2.85,9.88-11.55,11.94C780.94,883.24,785.53,878.37,793.14,876.6Z" transform="translate(-10.08 -18.69)"/><path class="cls-1" d="M784,101.12c-.83-.43-1.73-.59-2.09-1.12-3.3-4.85-7.45-7.84-13.69-7.34-.86.06-2.2-1.58-2.65-2.7-.19-.45,1.47-2.39,2.21-2.35C772.51,87.89,783.92,94.9,784,101.12Z" transform="translate(-10.08 -18.69)"/><path class="cls-1" d="M604.55,46.69l22.39,3.62c-3.85,3.51-17.11,1.74-22.69-2.15Z" transform="translate(-10.08 -18.69)"/><path class="cls-1" d="M790.28,218.18l-3.79-3.59c2.07-1.19,4.07-3.09,6.26-3.33,1.68-.19,3.6,1.7,5.42,2.66Z" transform="translate(-10.08 -18.69)"/><path class="cls-1" d="M831.94,207.72a52.15,52.15,0,0,1-8.06,1.71c-.92.06-2-1.73-2.94-2.68.95-.9,1.9-2.59,2.83-2.57a59.49,59.49,0,0,1,8.31,1.22C832,206.17,832,206.94,831.94,207.72Z" transform="translate(-10.08 -18.69)"/><path class="cls-1" d="M296.26,911.37l7.09,6.12c-.93.76-2.39,2.35-2.71,2.15-2.46-1.55-4.7-3.45-7-5.24Z" transform="translate(-10.08 -18.69)"/><path class="cls-1" d="M935.09,640.64c-2.86,1.77-5.37,3.23-6.76-.45-.6-1.58-.09-5.2.67-5.43C934.37,633.12,932.41,638.85,935.09,640.64Z" transform="translate(-10.08 -18.69)"/><path class="cls-1" d="M807,113.39c1.86,2.28,1.09,7.34-1.28,7.87a3.32,3.32,0,0,1-2.51-.94,2.21,2.21,0,0,1,0-2.11C804.33,116.52,805.7,115,807,113.39Z" transform="translate(-10.08 -18.69)"/><path class="cls-1" d="M879.8,826.76c.39-2,.77-4,1.15-5.93l3.1.66c-.56,2-1.11,3.93-1.66,5.9Z" transform="translate(-10.08 -18.69)"/><path class="cls-1" d="M34.26,623.94l-3.92-4c1.91-1.28,3.71-2.89,5.81-3.66.66-.25,2.14,1.73,3.25,2.69Z" transform="translate(-10.08 -18.69)"/><path class="cls-1" d="M43.84,378.62c.76,2,2,3.58,1.61,4.61a4.68,4.68,0,0,1-3.51,2.41c-1,.06-2.16-1.5-3.25-2.34Z" transform="translate(-10.08 -18.69)"/><path class="cls-1" d="M966.67,315.86c-1.85,2-2.84,3.9-4.3,4.37-1.1.36-2.94-.91-4.17-1.83-.57-.41-.48-1.72-.68-2.62a25.78,25.78,0,0,1,4.05-.69A35.35,35.35,0,0,1,966.67,315.86Z" transform="translate(-10.08 -18.69)"/></svg>